<?xml version="1.0" standalone="no"?>
<!DOCTYPE svg PUBLIC "-//W3C//DTD SVG 1.1//EN" "http://www.w3.org/Graphics/SVG/1.1/DTD/svg11.dtd" >
<!--
2014-5-13: Created.
-->
<svg xmlns="http://www.w3.org/2000/svg">
<metadata>
Created by FontForge 20120731 at Tue May 13 12:00:52 2014
 By Matt Bond
Created by Matt Bond with FontForge 2.0 (http://fontforge.sf.net)
</metadata>
<defs>
<font id="atlassian-icons" horiz-adv-x="512" >
  <font-face 
    font-family="atlassian-icons"
    font-weight="500"
    font-stretch="normal"
    units-per-em="512"
    panose-1="2 0 6 9 0 0 0 0 0 0"
    ascent="448"
    descent="-64"
    bbox="-16 -65.2803 528 450.215"
    underline-thickness="25.6"
    underline-position="-51.2"
    unicode-range="U+F1CE-F291"
  />
    <missing-glyph />
    <glyph glyph-name="uniF24B" unicode="&#xf24b;" 
d="M351.696 352h-255.393c-35.5439 0 -64.3037 -28.6553 -64.3037 -63.9609v-169.303c32 25.2637 48 53.9355 96 105.264c48 -51.3281 133.95 -192.959 133.95 -192.959s106.05 13.292 150.966 13.292c2.00293 6.18555 3.08398 12.7822 3.08398 19.6279v224.078
c0 35.4355 -28.5566 63.9609 -64.3037 63.9609zM351.696 -32h-255.393c-53.5312 0 -96.3037 42.9629 -96.3037 95.9609v224.078c0 53.0088 43.1162 95.9609 96.3037 95.9609h255.393c53.5312 0 96.3037 -42.9629 96.3037 -95.9609v-224.078
c0 -53.0088 -43.1162 -95.9609 -96.3037 -95.9609zM512 352.039v-224.078c0 -41.7637 -26.71 -77.2852 -64 -90.4766v35.1006c19.1357 11.0664 32 31.7236 32 55.376v224.078c0 35.3428 -28.6475 63.9609 -64.1074 63.9609h-255.785
c-23.7461 0 -44.4658 -12.8721 -55.5449 -32h-35.1045c13.1846 37.2891 48.792 64 90.6494 64h255.785c53.1514 0 96.1074 -42.9629 96.1074 -95.9609zM256 240c0 32 16 48 48 48s48 -16 48 -48s-16 -48 -48 -48s-48 16 -48 48zM374.782 156.801
c28.2764 -29.4131 18.4561 -27.4678 41.2178 -60.8008v-64.959h-154.05s-7.25684 11.958 -18.7314 30.1846c17.7266 11.7812 95.6729 64.0361 131.563 95.5752z" />
    <glyph glyph-name="uniF222" unicode="&#xf222;" 
d="M16 336h96v64h-96v-64zM16 272h96v64h-96v-64zM80 208h64v160h-64v-160zM16 208h96v64h-96v-64zM-16 240h64v64h-64v-64zM48 112h480v64h-480v-64zM379.781 352.444h49.2188l48.3438 -321.344h-47.6875l-12.25 96.25h-127.094l-55.125 -96.25h-44.625zM410.844 159.588
l-18.5938 141.969l-82.0312 -141.969h100.625z" />
    <glyph glyph-name="uniF1F8" unicode="&#xf1f8;" 
d="M320 448h161c9.66699 0 17.25 -3.29199 22.75 -9.875s8.25 -14.958 8.25 -25.125v-441c0 -10.167 -2.75 -18.708 -8.25 -25.625s-13.083 -10.375 -22.75 -10.375h-161v64h128v384h-128v64zM382.5 193l-190.5 -164.5v131.5h-192v64h192v133.5z" />
    <glyph glyph-name="uniF261" unicode="&#xf261;" 
d="M256 448l72.6396 -160.32l183.36 -23.04l-138.56 -119.712l40.6396 -176.928l-158.08 96l-158.08 -96l40.6396 176.928l-138.56 119.712l183.36 23.04z" />
    <glyph glyph-name="uniF25F" unicode="&#xf25f;" 
d="M99.3779 352v0h172.622l144 -144v-172.622c39.5723 40.418 64 95.7197 64 156.622c0 123.52 -100.48 224 -224 224c-60.9023 0 -116.204 -24.4277 -156.622 -64zM72.2607 320c-13.5088 -19.334 -24.0479 -40.8896 -30.9482 -64h134.688l144 -144v-134.688
c23.1104 6.90039 44.666 17.4395 64 30.9482v183.739h-128l1.37598 128h-185.115v0zM0 192c0 141.44 114.56 256 256 256s256 -114.56 256 -256s-114.56 -256 -256 -256s-256 114.56 -256 256zM256 -32c10.8623 0 21.5469 0.777344 32 2.27832v125.722h-128l1.37598 128
s-126.79 1.72168 -127.163 -0.460938c-1.45898 -10.3066 -2.21289 -20.8359 -2.21289 -31.5391c0 -123.52 100.48 -224 224 -224zM192 128h66.752l-66.752 66.752v-66.752zM288 290.752v-66.752h66.752z" />
    <glyph glyph-name="uniF206" unicode="&#xf206;" 
d="M96 448h320c26.5 0 49.125 -9.375 67.875 -28.125s28.125 -41.375 28.125 -67.875v-320c0 -26.5 -9.375 -49.125 -28.125 -67.875s-41.375 -28.125 -67.875 -28.125h-320c-26.5 0 -49.125 9.375 -67.875 28.125s-28.125 41.375 -28.125 67.875v320
c0 26.5 9.375 49.125 28.125 67.875s41.375 28.125 67.875 28.125zM480 32v320c0 17.667 -6.29199 32.75 -18.875 45.25s-27.625 18.75 -45.125 18.75h-320c-17.5 0 -32.542 -6.25 -45.125 -18.75s-18.875 -27.583 -18.875 -45.25v-320
c0 -17.667 6.29199 -32.75 18.875 -45.25s27.625 -18.75 45.125 -18.75h320c17.5 0 32.542 6.25 45.125 18.75s18.875 27.583 18.875 45.25zM96.5 287.5h96c10.333 0.166992 19.417 1.375 27.25 3.625s13.5 4.375 17 6.375s8.70801 5.70801 15.625 11.125
s11.958 9.20801 15.125 11.375c13.833 9.83301 27.083 17.417 39.75 22.75s27.75 8.08301 45.25 8.25l64 0.5v-160h-64c-9.33301 0 -18.083 0.833008 -26.25 2.5s-15.875 4.25 -23.125 7.75s-13.25 6.70801 -18 9.625s-10.625 6.79199 -17.625 11.625
c-3.16699 2.16699 -8.20801 5.95801 -15.125 11.375s-12.125 9.125 -15.625 11.125s-9.16699 4.125 -17 6.375s-16.917 3.45801 -27.25 3.625h-96v32zM308.5 96h108v-32h-96.5c-2 0 -6.41699 0.0419922 -13.25 0.125s-11.5 0.0830078 -14 0s-6.54199 -0.25 -12.125 -0.5
s-9.91699 -0.708008 -13 -1.375s-6.83301 -1.5 -11.25 -2.5s-8.33301 -2.375 -11.75 -4.125s-6.79199 -3.79199 -10.125 -6.125c-10.5 -7.33301 -20.417 -12 -29.75 -14s-24.25 -3.16699 -44.75 -3.5h-64v95.5h64c20.5 -0.333008 35.417 -1.5 44.75 -3.5
s19.25 -6.66699 29.75 -14c13.333 -9.66699 38 -14.5 74 -14.5v0.5z" />
    <glyph glyph-name="uniF1F1" unicode="&#xf1f1;" 
d="M112 127.968c-51.5195 0 -110.112 35.8398 -110.112 87.3604c0 51.5195 42.5928 104.672 94.1123 104.672c3.83984 0 23.9678 -19.5518 27.8076 -20.1924c-5.11914 12.1602 -11.8076 22.1123 -11.8076 36.1924c0 55.3604 40.6396 112 96 112
c42.2402 0 64.96 -27.2002 80 -64c11.2002 9.28027 32.3203 16 48 16c35.8398 0 62.6562 -27.8398 62.6562 -64c0 -11.5195 0 -32 -14.6562 -48.0156c14.6562 16.0156 32 32.0156 46.4004 32.0156c49.5996 0 81.5996 -44.4805 81.5996 -96
c0.0644531 -51.4883 -30.4004 -96.0322 -81.5996 -96.0322h-92.6484l-81.4316 96.0322l-83.7354 -96.0322h-60.585zM224.32 32h-96l128 142.72l124.479 -142.72h-92.4795v-96h-64v96z" />
    <glyph glyph-name="uniF228" unicode="&#xf228;" 
d="M256 -64c-34.667 0 -67.792 6.79199 -99.375 20.375s-58.792 31.792 -81.625 54.625s-41.042 50.042 -54.625 81.625s-20.375 64.708 -20.375 99.375s6.79199 67.792 20.375 99.375s31.792 58.792 54.625 81.625s50.042 41.042 81.625 54.625
s64.708 20.375 99.375 20.375s67.792 -6.79199 99.375 -20.375s58.792 -31.792 81.625 -54.625s41.042 -50.042 54.625 -81.625s20.375 -64.708 20.375 -99.375s-6.79199 -67.792 -20.375 -99.375s-31.792 -58.792 -54.625 -81.625s-50.042 -41.042 -81.625 -54.625
s-64.708 -20.375 -99.375 -20.375zM256 398.5c-28 0 -54.75 -5.45801 -80.25 -16.375s-47.458 -25.583 -65.875 -44s-33.083 -40.375 -44 -65.875s-16.375 -52.25 -16.375 -80.25s5.45801 -54.75 16.375 -80.25s25.583 -47.458 44 -65.875s40.375 -33.083 65.875 -44
s52.25 -16.375 80.25 -16.375s54.75 5.45801 80.25 16.375s47.458 25.583 65.875 44s33.083 40.375 44 65.875s16.375 52.25 16.375 80.25s-5.45801 54.75 -16.375 80.25s-25.583 47.458 -44 65.875s-40.375 33.083 -65.875 44s-52.25 16.375 -80.25 16.375zM288 320v-160
h-64v160h64zM288 128v-64h-64v64h64z" />
    <glyph glyph-name="uniF275" unicode="&#xf275;" 
d="M283.52 309.44c-65.0244 0 -129.491 -54.7354 -148.782 -118.771l88.9424 -31.3086l-191.04 -29.4082l31.3604 222.048l31.3604 -128.32l18.8799 40.3203l3.79199 -3.49414c34.9844 55.0156 95.9639 91.4941 165.456 91.4941
c108.512 0 196.512 -89.2803 196.512 -199.072c0 -110.08 -81.5684 -199.008 -190.048 -199.008v42.5605c77.4395 0 147.808 77.7598 147.808 156.447c0 78.4639 -76.7676 156.513 -154.24 156.513z" />
    <glyph glyph-name="uniF1DC" unicode="&#xf1dc;" 
d="M32 256v0c159.04 0 288 -128.96 288 -288h-64c0 105.92 -118.08 224 -224 224v64zM480 -32v0h-64c0 194.56 -189.44 384 -384 384v64c247.36 0 448 -200.64 448 -448zM38.4004 33.5996c0 37.3333 18.6667 56 56 56c37.3333 1.42109e-14 56 -18.6667 56 -56
c0 -37.3333 -18.6667 -56 -56 -56c-37.3333 -3.55271e-15 -56 18.6667 -56 56z" />
    <glyph glyph-name="uniF23C" unicode="&#xf23c;" 
d="M280 241.23c0 24.6159 12 36.9238 36 36.9238s36 -12.3079 36 -36.9238c0 -24.6152 -12 -36.9229 -36 -36.9229s-36 12.3076 -36 36.9229zM345.087 209.231c4.74009 -5.05718 11.8594 -11.988 21.358 -20.7924c9.4986 -8.80445 18.732 -17.5563 27.7003 -26.2556
c8.96825 -8.69928 16.2532 -16.4678 21.8548 -23.3055v-10.8906c0 -1.20266 -0.0657552 -2.40123 -0.197266 -3.5957c-9.02767 1.76129 -19.8789 2.56531 -32.5537 2.41206s-26.1995 -0.984792 -40.5741 -2.49462s-27.6516 -3.14 -39.8312 -4.8905
s-22.2879 -3.34235 -30.3251 -4.77556l-12.0557 -2.14981c-3.42409 6.31101 -7.85378 14.2234 -13.2891 23.7373c46.4781 31.7262 79.1158 56.0598 97.9131 73.001zM416 95.9873v192.025c0 5.77167 -1.44041 11.114 -4.32124 16.0271s-6.80078 8.80136 -11.7599 11.6649
s-10.3565 4.29532 -16.1923 4.29532h-255.453c-8.9785 0 -16.602 -3.1082 -22.8706 -9.32459s-9.40285 -13.7706 -9.40285 -22.6627v-127.303c14.7509 21.3738 37.9719 43.2911 69.6631 65.752c10.9725 -11.6985 24.3588 -29.7118 40.1587 -54.0399
c15.8 -24.3281 28.8568 -45.7316 39.1705 -64.2105l15.4706 -27.7183c3.05375 0.57932 7.07234 1.29592 12.0557 2.14981s15.0918 2.44574 30.3251 4.77556s28.5104 3.95999 39.8312 4.8905s24.8455 1.76206 40.5741 2.49462s26.5798 -0.0714512 32.5537 -2.41206
c0.13151 1.19447 0.197266 2.39304 0.197266 3.5957zM64 95.9873v192.025c0 17.766 6.26784 32.8721 18.8035 45.3182c12.5357 12.4461 27.6923 18.6691 45.4699 18.6691h255.453c17.7154 0 32.8565 -6.24965 45.4233 -18.7489s18.8501 -27.5787 18.8501 -45.2384v-192.025
c0 -17.766 -6.26784 -32.8721 -18.8035 -45.3182s-27.6923 -18.6691 -45.4699 -18.6691h-255.453c-11.6143 0 -22.3568 2.85365 -32.2275 8.56096c-9.87062 5.7073 -17.6793 13.476 -23.426 23.3061c-5.74669 9.83013 -8.62003 20.5369 -8.62003 32.1202z" />
    <glyph glyph-name="uniF1DA" unicode="&#xf1da;" 
d="M131.531 42.1875l92.9688 331.625h31.5l-92.75 -331.625h-31.7188zM256 42.1875l92.9688 331.625h31.5l-92.75 -331.625h-31.7188z" />
    <glyph glyph-name="uniF27C" unicode="&#xf27c;" 
d="M288 -11.5195v0c0 -18.8809 -7.04004 -34.8809 -13.4404 -43.5205c-2.87988 -3.83984 -25.5996 -8.63965 -30.7197 -8.63965l-201.28 -0.320312c-5.11914 0 -26.2393 5.12012 -29.1191 8.95996c-6.40039 8.63965 -18.5605 26.2402 -12.1602 44.1602
c0.319336 1.28027 29.7598 95.6797 109.439 147.84c15.0078 -5.44043 18.5605 -19.2002 32.96 -19.2002c11.8398 0 16 11.2002 32 19.2002c79.3604 -51.5195 112.32 -147.2 112.32 -148.479zM191.36 232v0c9.2793 -14.0801 13.4395 -24.3203 12.7998 -41.2803
c-14.4004 -18.5596 -35.5205 -30.3994 -59.8398 -30.3994c-43.8398 0 -79.6807 40.6396 -79.6807 82.8799c0 39.6797 21.1201 72 60.8008 76.1602c15.6797 -49.9199 30.3994 -67.5205 65.9199 -87.3604zM341.44 416v0c-76.3203 0 -148.48 -40.4482 -148.448 -83.2324
c0 -19.3594 23.4238 -42.9434 61.1514 -61.5039c10.5605 -5.21582 17.4082 -15.7754 17.8564 -27.5195c0.320312 -8.6084 0.223633 -16.416 -0.160156 -23.5205c11.4883 6.40039 22.4639 13.4404 32.7041 21.8242c5.37598 4.41602 12.0645 6.94434 19.0078 7.2002
l16.6406 0.671875c76.3516 0 139.808 37.9521 139.808 82.8799c0 45.0879 -63.4561 83.2002 -138.56 83.2002zM341.44 448v0v0c94.0791 0 170.56 -51.5195 170.56 -115.2c0 -63.3594 -76.4805 -114.88 -170.56 -114.88l-16.6406 -0.639648
c-29.7598 -24.3203 -64 -38.4004 -96 -53.7607c2.87988 17.6006 12.7998 36.4805 11.2002 79.04c-42.2725 20.8008 -79.04 52.4805 -79.04 90.2402c0 63.6807 86.0801 115.2 180.48 115.2z" />
    <glyph glyph-name="uniF27B" unicode="&#xf27b;" 
d="M319.492 200.96c91.2002 -95.0137 96.5078 -199.318 96.5078 -200.96c0 -64.2109 -48.1523 -63.9961 -96.5078 -64h-127.492c-48.8398 0 -96 0.961914 -96 64c0 1.68457 0.429688 110.788 95.9492 204.16c28.8506 26.2402 47.6768 26.2402 64.0508 26.2402
s38.4004 -3.2002 63.4922 -29.4404zM256 448c52.9043 0 96 -44.4805 96 -96.8535c0 -52.3721 -42.2402 -95.1465 -96 -95.1465c-53.7197 0 -96 42.7744 -96 95.1465c0 52.373 43.0957 96.8535 96 96.8535z" />
    <glyph glyph-name="uniF220" unicode="&#xf220;" 
d="M163.668 180.571l10.4717 59.8857c10.4717 59.8857 45.5283 90.9717 97.8867 90.9717c30.0488 0 53.7236 -10.5146 66.4717 -30.6289l11.8369 26.0576h38.6992l-29.5938 -166.4c-3.18652 -17.3711 4.55273 -26.9717 17.3008 -26.9717
c22.3096 0 59.6426 40.6865 59.6426 118.857c0 75.4287 -49.1709 122.515 -131.122 122.515c-113.366 0 -205.333 -82.7432 -205.333 -211.2c0 -75.4287 49.1709 -122.515 131.577 -122.515c35.0566 0 67.8369 8.22852 96.9756 23.7715l15.9346 -39.3145
c-34.1465 -16.457 -72.3896 -25.5996 -112.91 -25.5996c-111.09 0 -177.105 63.0859 -177.105 163.657c0 152.686 112.455 252.343 250.861 252.343c110.634 0 176.65 -63.0859 176.65 -163.657c0 -101.028 -57.3662 -160.914 -111.089 -160.914
c-26.8623 0 -45.9844 8.68555 -56.4561 32.9141c-17.7559 -24.6855 -45.0732 -37.4854 -78.7637 -37.4854c-52.3584 0 -82.4072 33.8281 -71.9355 93.7139zM225.587 244.114l-11.8369 -67.2002c-5.00879 -28.7998 12.292 -46.1709 38.6992 -46.1709
c29.5928 0 54.6338 19.1992 60.5527 52.1143l10.0156 56.2285c5.46387 29.7139 -15.0244 48.457 -45.5283 48.457c-29.5938 0 -46.8945 -15.0859 -51.9023 -43.4287z" />
    <glyph glyph-name="uniF276" unicode="&#xf276;" 
d="M339.2 448v-144l124.8 128l32 -32l-128 -124.8h144v-51.2002h-224v224h51.2002zM172.8 -64v144l-124.8 -128l-32 32l128 124.8h-144v51.2002h224v-224h-51.2002z" />
    <glyph glyph-name="uniF25B" unicode="&#xf25b;" 
d="M349.5 145.5l96 -96c1.66699 -1.66699 2.5 -3.66699 2.5 -6s-0.833008 -4.33301 -2.5 -6l-35 -34.5c-1.5 -1.66699 -3.375 -2.5 -5.625 -2.5s-4.20801 0.833008 -5.875 2.5l-96 96c-25.833 -16.667 -53.833 -25 -84 -25c-21 0 -41.083 4.125 -60.25 12.375
s-35.667 19.333 -49.5 33.25s-24.833 30.458 -33 49.625s-12.25 39.25 -12.25 60.25s4.08301 41.083 12.25 60.25s19.167 35.667 33 49.5s30.333 24.833 49.5 33s39.25 12.25 60.25 12.25s41.083 -4.08301 60.25 -12.25s35.708 -19.167 49.625 -33s25 -30.333 33.25 -49.5
s12.375 -39.25 12.375 -60.25c0 -30.167 -8.33301 -58.167 -25 -84zM113.5 229.5c0 -29.167 10.333 -54.125 31 -74.875s45.5 -31.125 74.5 -31.125c19.167 0 36.875 4.75 53.125 14.25s29.125 22.375 38.625 38.625s14.25 33.958 14.25 53.125
c0 29 -10.375 53.833 -31.125 74.5s-45.708 31 -74.875 31c-29 0 -53.833 -10.333 -74.5 -31s-31 -45.5 -31 -74.5z" />
    <glyph glyph-name="uniF1D5" unicode="&#xf1d5;" 
d="M240 288v0l32 32l112 -118.4v-19.1992l-112 -118.4l-32 32l96 96zM112 288v0l32 32l112 -118.4v-19.1992l-112 -118.4l-32 32l96 96z" />
    <glyph glyph-name="uniF22F" unicode="&#xf22f;" 
d="M377.28 414.72v0h-242.561c-39.0078 0 -70.7197 -31.7119 -70.7197 -70.7197v-306.56c0 -39.0088 31.7119 -70.7207 70.7197 -70.7207h242.561c39.0078 0 70.7197 31.7119 70.7197 70.7207v306.56c0 39.0078 -31.7119 70.7197 -70.7197 70.7197zM377.28 446.72v0v0
c56.6396 0 102.72 -46.0479 102.72 -102.72v-306.56c0 -56.6729 -46.0801 -102.721 -102.72 -102.721h-242.561c-56.6396 0 -102.72 46.0479 -102.72 102.721v306.56c0 56.6719 46.0801 102.72 102.72 102.72h242.561zM352 190.72v0v-32h-224v32h224zM384 254.72v0v-32h-256
v32h256zM288 318.72v0v-32h-160v32h160zM320 126.72v0v-32h-192v32h192zM352 62.7197v0v-32h-224v32h224z" />
    <glyph glyph-name="uniF27D" unicode="&#xf27d;" 
d="M512 190.5l-7 -8.75c-4.5 -5.83301 -11.167 -13.417 -20 -22.75s-19.042 -19.625 -30.625 -30.875s-25.042 -22.5 -40.375 -33.75s-31.125 -21.542 -47.375 -30.875s-34.167 -16.917 -53.75 -22.75s-38.708 -8.75 -57.375 -8.75s-37.792 3.04199 -57.375 9.125
s-37.292 13.542 -53.125 22.375s-31.708 19.417 -47.625 31.75s-29.208 23.542 -39.875 33.625s-21 20.667 -31 31.75s-16.5 18.542 -19.5 22.375s-5.33301 6.83301 -7 9l7 9c4.5 5.83301 11.125 13.417 19.875 22.75s18.917 19.708 30.5 31.125s25 22.833 40.25 34.25
s31 21.792 47.25 31.125s34.167 16.958 53.75 22.875s38.708 8.875 57.375 8.875s37.833 -3.08301 57.5 -9.25s37.417 -13.708 53.25 -22.625s31.75 -19.583 47.75 -32s29.292 -23.708 39.875 -33.875s20.917 -20.833 31 -32s16.625 -18.667 19.625 -22.5
s5.33301 -6.91699 7 -9.25zM352 192c0 16.667 -4.70801 32.458 -14.125 47.375s-21.542 26.75 -36.375 35.5s-30 13.125 -45.5 13.125c-15.167 0 -30.167 -4.33301 -45 -13s-27.042 -20.5 -36.625 -35.5s-14.375 -30.833 -14.375 -47.5s4.79199 -32.5 14.375 -47.5
s21.75 -26.833 36.5 -35.5s29.792 -13 45.125 -13c15.5 0 30.667 4.33301 45.5 13s26.958 20.458 36.375 35.375s14.125 30.792 14.125 47.625zM288 192c0 -11.5 -2.58301 -19.708 -7.75 -24.625s-13.25 -7.375 -24.25 -7.375s-19.083 2.45801 -24.25 7.375
s-7.75 13.125 -7.75 24.625s2.58301 19.708 7.75 24.625s13.25 7.375 24.25 7.375s19.083 -2.45801 24.25 -7.375s7.75 -13.125 7.75 -24.625z" />
    <glyph glyph-name="uniF205" unicode="&#xf205;" 
d="M192 448h223.5c26.667 0 49.417 -9.375 68.25 -28.125s28.25 -41.375 28.25 -67.875v-256c0 -21.167 -6.375 -40.208 -19.125 -57.125s-29.042 -28.542 -48.875 -34.875c-6 -20 -17.458 -36.333 -34.375 -49s-36.125 -19 -57.625 -19h-224
c-26.5 0 -49.125 9.375 -67.875 28.125s-28.125 41.375 -28.125 67.875v256c0 21.5 6.33301 40.708 19 57.625s29 28.375 49 34.375c6 20 17.458 36.333 34.375 49s36.125 19 57.625 19zM479.5 96v256c0 17.5 -6.25 32.542 -18.75 45.125s-27.583 18.875 -45.25 18.875
h-223.5c-11.833 0 -22.625 -2.91699 -32.375 -8.75s-17.458 -13.583 -23.125 -23.25h215.5c26.5 0 49.125 -9.375 67.875 -28.125s28.125 -41.375 28.125 -67.875v-247.5c9.66699 5.83301 17.333 13.667 23 23.5s8.5 20.5 8.5 32zM416.5 31.5v256
c0 17.667 -6.29199 32.75 -18.875 45.25s-27.792 18.75 -45.625 18.75h-223.5c-17.667 0 -32.75 -6.25 -45.25 -18.75s-18.75 -27.583 -18.75 -45.25v-256c0 -17.667 6.25 -32.75 18.75 -45.25s27.583 -18.75 45.25 -18.75h223.5c17.833 0 33.042 6.25 45.625 18.75
s18.875 27.583 18.875 45.25zM320 160v-96h-160v96h32v96h96v-96h32zM256 224h-32v-64h32v64z" />
    <glyph glyph-name="uniF20C" unicode="&#xf20c;" 
d="M256 -64c-34.667 0 -67.792 6.79199 -99.375 20.375s-58.792 31.792 -81.625 54.625s-41.042 50.042 -54.625 81.625s-20.375 64.708 -20.375 99.375s6.79199 67.792 20.375 99.375s31.792 58.792 54.625 81.625s50.042 41.042 81.625 54.625
s64.708 20.375 99.375 20.375s67.792 -6.79199 99.375 -20.375s58.792 -31.792 81.625 -54.625s41.042 -50.042 54.625 -81.625s20.375 -64.708 20.375 -99.375s-6.79199 -67.792 -20.375 -99.375s-31.792 -58.792 -54.625 -81.625s-50.042 -41.042 -81.625 -54.625
s-64.708 -20.375 -99.375 -20.375zM256 398.5c-28 0 -54.75 -5.45801 -80.25 -16.375s-47.458 -25.583 -65.875 -44s-33.083 -40.375 -44 -65.875s-16.375 -52.25 -16.375 -80.25s5.45801 -54.75 16.375 -80.25s25.583 -47.458 44 -65.875s40.375 -33.083 65.875 -44
s52.25 -16.375 80.25 -16.375s54.75 5.45801 80.25 16.375s47.458 25.583 65.875 44s33.083 40.375 44 65.875s16.375 52.25 16.375 80.25s-5.45801 54.75 -16.375 80.25s-25.583 47.458 -44 65.875s-40.375 33.083 -65.875 44s-52.25 16.375 -80.25 16.375zM192 192
c0 -8.66699 -3.16699 -16.167 -9.5 -22.5s-13.833 -9.5 -22.5 -9.5s-16.167 3.16699 -22.5 9.5s-9.5 13.833 -9.5 22.5s3.16699 16.167 9.5 22.5s13.833 9.5 22.5 9.5s16.167 -3.16699 22.5 -9.5s9.5 -13.833 9.5 -22.5zM288 192c0 -8.66699 -3.16699 -16.167 -9.5 -22.5
s-13.833 -9.5 -22.5 -9.5s-16.167 3.16699 -22.5 9.5s-9.5 13.833 -9.5 22.5s3.16699 16.167 9.5 22.5s13.833 9.5 22.5 9.5s16.167 -3.16699 22.5 -9.5s9.5 -13.833 9.5 -22.5zM384 192c0 -8.66699 -3.16699 -16.167 -9.5 -22.5s-13.833 -9.5 -22.5 -9.5
s-16.167 3.16699 -22.5 9.5s-9.5 13.833 -9.5 22.5s3.16699 16.167 9.5 22.5s13.833 9.5 22.5 9.5s16.167 -3.16699 22.5 -9.5s9.5 -13.833 9.5 -22.5z" />
    <glyph glyph-name="uniF207" unicode="&#xf207;" 
d="M256 352h192c8.66699 0 16.167 -3.16699 22.5 -9.5s9.5 -13.833 9.5 -22.5v-128h-128v32c0 10.333 -2.75 18.25 -8.25 23.75s-13.417 8.25 -23.75 8.25h-159.5c-21.333 0 -32 -10.667 -32 -32v-192h-64c-8.66699 0 -16.167 3.16699 -22.5 9.5s-9.5 13.833 -9.5 22.5v284
v36c0 8.66699 3.16699 16.167 9.5 22.5s13.833 9.5 22.5 9.5h160c8.66699 0 16.083 -3.125 22.25 -9.375s9.25 -13.792 9.25 -22.625v-32zM320 160h136c6.5 0 12.125 -2.375 16.875 -7.125s7.125 -10.375 7.125 -16.875v-144.5c0 -6.5 -2.375 -12.042 -7.125 -16.625
s-10.375 -6.875 -16.875 -6.875h-272c-6.5 0 -12.042 2.29199 -16.625 6.875s-6.875 10.125 -6.875 16.625v209c0 6.5 2.25 12.042 6.75 16.625s9.91699 6.875 16.25 6.875h113.5c6.5 0 11.958 -2.29199 16.375 -6.875s6.625 -10.125 6.625 -16.625v-40.5z" />
    <glyph glyph-name="uniF274" unicode="&#xf274;" 
d="M256 -64c-34.667 0 -67.792 6.79199 -99.375 20.375s-58.792 31.792 -81.625 54.625s-41.042 50.042 -54.625 81.625s-20.375 64.708 -20.375 99.375s6.79199 67.792 20.375 99.375s31.792 58.792 54.625 81.625s50.042 41.042 81.625 54.625
s64.708 20.375 99.375 20.375s67.792 -6.79199 99.375 -20.375s58.792 -31.792 81.625 -54.625s41.042 -50.042 54.625 -81.625s20.375 -64.708 20.375 -99.375s-6.79199 -67.792 -20.375 -99.375s-31.792 -58.792 -54.625 -81.625s-50.042 -41.042 -81.625 -54.625
s-64.708 -20.375 -99.375 -20.375zM256 398.5c-28 0 -54.75 -5.45801 -80.25 -16.375s-47.458 -25.583 -65.875 -44s-33.083 -40.375 -44 -65.875s-16.375 -52.25 -16.375 -80.25s5.45801 -54.75 16.375 -80.25s25.583 -47.458 44 -65.875s40.375 -33.083 65.875 -44
s52.25 -16.375 80.25 -16.375s54.75 5.45801 80.25 16.375s47.458 25.583 65.875 44s33.083 40.375 44 65.875s16.375 52.25 16.375 80.25s-5.45801 54.75 -16.375 80.25s-25.583 47.458 -44 65.875s-40.375 33.083 -65.875 44s-52.25 16.375 -80.25 16.375zM288 192h96v-64
h-160v192h64v-128z" />
    <glyph glyph-name="uniF1F2" unicode="&#xf1f2;" 
d="M0 416h512v-32h-512v32zM0 352h384v-32h-384v32zM0 288h512v-32h-512v32zM0 224h512v-32h-512v32zM0 160h320v-32h-320v32zM0 96h512v-32h-512v32zM0 32h320v-32h-320v32z" />
    <glyph glyph-name="uniF221" unicode="&#xf221;" 
d="M158.4 256h64v-32h-66.2402l2.24023 -64l-94.4004 80l94.4004 80v-64zM64 352v32h384v-32h-384zM256 256v64h192v-64h-192zM256 160v64h192v-64h-192zM64 96v32h384v-32h-384zM64 32v32h384v-32h-384z" />
    <glyph glyph-name="uniF291" unicode="&#xf291;" 
d="M316.952 213.312c87.5518 -90.2617 92.6475 -214.952 92.6475 -216.512c0 -61 -46.2256 -60.7959 -92.6475 -60.7998h-122.393c-46.8857 0 -92.1592 0.913086 -92.1592 60.7998c0 1.60059 0.412109 130.849 92.1113 219.552
c27.6963 24.9287 45.7695 24.9287 61.4883 24.9287s36.8643 -3.04004 60.9521 -27.9688zM256 448c49.377 0 89.5996 -41.5156 89.5996 -90.3965s-39.4238 -88.8037 -89.5996 -88.8037c-50.1387 0 -89.5996 39.9229 -89.5996 88.8037s40.2227 90.3965 89.5996 90.3965z" />
    <glyph glyph-name="uniF279" unicode="&#xf279;" 
d="M256.001 320v0c-32.7529 0 -62.6758 -10.1416 -97.0254 -32.8828c-34.1465 -22.6064 -69.9365 -55.958 -111.378 -94.5762c-0.300781 -0.280273 -0.601562 -0.560547 -0.90332 -0.841797c42.6846 -40.7637 76.6572 -73.0254 110.043 -95.2236
c16.7178 -11.1152 32.4238 -19.0615 48.0166 -24.2939c16.4033 -5.50586 33.167 -8.18164 51.2471 -8.18164c37.4805 0 70.9521 11.6865 108.531 37.8936c31.5391 21.9951 64.7949 53.4766 102.057 90.1865c-39.2588 38.6924 -71.5332 67.8359 -103.062 89.3877
c-19.2295 13.1445 -37.0254 22.6016 -54.4023 28.9102c-17.835 6.47461 -35.2119 9.62207 -53.124 9.62207zM256.001 352v0v0c88.71 0 160.85 -64.3047 256 -160c-97.0508 -96.2402 -161.046 -160 -256 -160c-95.5859 0 -154.605 63.7598 -256 160
c99.4941 91.8945 163.539 160 256 160zM256.001 255.892v0c-17.0957 0 -33.168 -6.65723 -45.2559 -18.7451s-18.7441 -28.1602 -18.7441 -45.2549c0 -17.0957 6.65625 -33.168 18.7441 -45.2559s28.1602 -18.7441 45.2559 -18.7441
c17.0947 0 33.167 6.65625 45.2549 18.7441s18.7451 28.1602 18.7451 45.2559s-6.65723 33.167 -18.7451 45.2549s-28.1602 18.7451 -45.2549 18.7451zM256.001 287.892v0v0c53.0195 0 96 -42.9805 96 -96c0 -53.0205 -42.9805 -96 -96 -96c-53.0205 0 -96 42.9795 -96 96
c0 53.0195 42.9795 96 96 96z" />
    <glyph glyph-name="uniF1E3" unicode="&#xf1e3;" 
d="M352 384v-64h64zM448 288h-128v128h-160c-35.2959 0 -64 -28.7041 -64 -64v-320c0 -35.2959 28.7041 -64 64 -64h224c35.2959 0 64 28.7041 64 64v256zM160 448h176l144 -144v-272c0 -53.1201 -42.8799 -96 -96 -96h-224c-53.1201 0 -96 42.8799 -96 96v320
c0 53.1201 42.8799 96 96 96zM192.608 -24.96c0.319336 0.607422 5.43945 65.5352 49.9512 98.208c8.32031 -3.52051 21.4404 -6.08008 29.4404 -6.08008c6.71973 0 19.5195 1.63184 28.5117 6.43164c44.1279 -32 51.4883 -98.2402 51.4883 -98.8799
c0 -2.12695 -0.297852 -4.39551 -0.806641 -6.71973h-159.028c-0.321289 2.47754 -0.232422 4.86621 0.443359 7.04004zM227.84 144c0 26.5596 19.8398 48 44.1602 48s43.8398 -21.4404 43.8398 -48s-19.5195 -48 -43.8398 -48s-44.1602 21.4404 -44.1602 48v0z
M114.56 105.248c8.32031 -3.52051 21.4404 -6.08008 29.4404 -6.08008c6.71973 0 19.5195 1.63184 28.5117 6.43164c13.9268 -10.0986 24.1904 -23.6074 31.7178 -37.3887l-37.5684 -79.2803l6.07324 -21.2832h-76.7344v119.739
c5.26367 6.52051 11.4023 12.6074 18.5596 17.8613zM99.8398 176c0 26.5596 19.8398 48 44.1602 48s43.8398 -21.4404 43.8398 -48s-19.5195 -48 -43.8398 -48s-44.1602 21.4404 -44.1602 48v0zM428.512 105.6c7.51367 -5.44824 13.9619 -11.8896 19.4883 -18.8311v-119.121
h-82.5283c-0.208008 0.753906 -0.420898 1.50977 -0.636719 2.26953l24.9922 13.2051l-47.6172 90.123c6.98438 11.7617 16.1992 23.084 28.3496 32.0029c8.32031 -3.52051 21.4404 -6.08008 29.4404 -6.08008c6.71973 0 19.5195 1.63184 28.5117 6.43164zM355.84 176
c0 26.5596 19.8398 48 44.1602 48s43.8398 -21.4404 43.8398 -48s-19.5195 -48 -43.8398 -48s-44.1602 21.4404 -44.1602 48v0z" />
    <glyph glyph-name="uniF28B" unicode="&#xf28b;" 
d="M51.2002 -12.7998v435.2h102.399v-435.2h-102.399zM179.2 -12.7998v435.2h179.2v-435.2h-179.2zM384 -12.7998v435.2h102.4v-435.2h-102.4z" />
    <glyph glyph-name="uniF260" unicode="&#xf260;" 
d="M256 448c141.44 0 256 -114.56 256 -256s-114.56 -256 -256 -256s-256 114.56 -256 256s114.56 256 256 256zM256 416c-123.52 0 -224 -100.48 -224 -224c0 -69.9492 32.2236 -132.51 82.6064 -173.618c18.8633 42.8076 47.9453 89.5918 91.4736 118.898
c18.2402 -6.7207 33.9199 -15.04 51.5195 -15.04c14.4004 0 26.2402 9.91992 46.0801 19.5195c43.751 -29.3125 74.209 -78.166 94.4043 -122.812c49.9863 41.1152 81.916 103.423 81.916 173.053c0 123.52 -100.48 224 -224 224zM256.64 351.68
c52.8008 0 96 -42.8799 96 -96s-43.1992 -96 -96 -96c-53.1201 0 -96 42.8799 -96 96s42.8799 96 96 96z" />
    <glyph glyph-name="uniF23E" unicode="&#xf23e;" 
d="M272.5 434.5c9.33301 0 17.25 -3.25 23.75 -9.75s9.75 -14.417 9.75 -23.75c0 -9.5 -3.25 -17.542 -9.75 -24.125s-14.417 -9.875 -23.75 -9.875c-9.5 0 -17.542 3.29199 -24.125 9.875s-9.875 14.625 -9.875 24.125c0 9.33301 3.29199 17.25 9.875 23.75
s14.625 9.75 24.125 9.75zM144 402c9.33301 0 17.25 -3.25 23.75 -9.75s9.75 -14.417 9.75 -23.75s-3.25 -17.25 -9.75 -23.75s-14.417 -9.75 -23.75 -9.75s-17.25 3.25 -23.75 9.75s-9.75 14.417 -9.75 23.75s3.25 17.25 9.75 23.75s14.417 9.75 23.75 9.75zM400 401.5
c9.33301 0 17.25 -3.25 23.75 -9.75s9.75 -14.417 9.75 -23.75s-3.25 -17.25 -9.75 -23.75s-14.417 -9.75 -23.75 -9.75s-17.25 3.25 -23.75 9.75s-9.75 14.417 -9.75 23.75s3.25 17.25 9.75 23.75s14.417 9.75 23.75 9.75zM387 -64h-64
c-2.5 0 -4.79199 1.70801 -6.875 5.125s-3.29199 6.70801 -3.625 9.875c-0.666992 9.83301 -2.75 19.458 -6.25 28.875s-7.41699 17.708 -11.75 24.875s-10.542 15.375 -18.625 24.625s-15.167 16.917 -21.25 23s-14.625 14.458 -25.625 25.125s-19.833 19.333 -26.5 26
c-14.5 14.667 -24.875 25.292 -31.125 31.875s-14.75 16.125 -25.5 28.625s-19.708 24 -26.875 34.5c-25 35.834 -39.167 70.833 -42.5 105c-0.5 3.83301 0.833008 6.83301 4 9c2.16699 1.66699 4.33301 2.5 6.5 2.5c1 0 2.16699 -0.333008 3.5 -1
c23 -8.5 45.333 -15.333 67 -20.5c4.66699 -1 7.83301 -3.66699 9.5 -8c2.83301 -8.16699 7 -16.75 12.5 -25.75s10.542 -16.708 15.125 -23.125s11.792 -15.042 21.625 -25.875s16.958 -18.542 21.375 -23.125s12.708 -13.125 24.875 -25.625c2 -2.66699 4.5 -4 7.5 -4
c3.33301 0 6 1.33301 8 4c11.5 11.667 19.792 20.167 24.875 25.5s12.292 13.208 21.625 23.625s16.458 19 21.375 25.75s10.042 14.583 15.375 23.5s9.41699 17.458 12.25 25.625c1.83301 4.33301 5 7 9.5 8c24.5 5.83301 46.667 12.5 66.5 20c2 0.666992 3.33301 1 4 1
c2.16699 0 4.33301 -0.833008 6.5 -2.5c3.16699 -2.5 4.5 -5.66699 4 -9.5c-3.5 -34.334 -17.667 -69.166 -42.5 -104.5c-7.16699 -10.5 -16.125 -22 -26.875 -34.5s-19.25 -22.042 -25.5 -28.625s-16.625 -17.208 -31.125 -31.875c-1.33301 -1.66699 -3.5 -4 -6.5 -7
c-1.16699 -1.16699 -1.83301 -2.75 -2 -4.75s0.333008 -3.91699 1.5 -5.75c2.66699 -3.33301 9.33301 -12.333 20 -27c8 -11.5 13.458 -19.5 16.375 -24s6.83301 -10.875 11.75 -19.125s8.25 -14.917 10 -20s3.5 -11.25 5.25 -18.5s2.79199 -14.875 3.125 -22.875
c0.5 -3.33301 -0.333008 -6.66699 -2.5 -10c-3.83301 -5.66699 -6.5 -8.5 -8 -8.5zM320 288c0 -7.83301 -2.41699 -16.75 -7.25 -26.75s-11.042 -18.667 -18.625 -26s-14.792 -11.083 -21.625 -11.25c-7.33301 0.166992 -14.833 3.91699 -22.5 11.25
s-13.917 15.958 -18.75 25.875s-7.25 18.875 -7.25 26.875h96zM217 -64h-64c-2.16699 0 -4.66699 2.83301 -7.5 8.5c-2 3.33301 -3 7.5 -3 12.5c0.166992 4.33301 0.458008 8.33301 0.875 12s1.20801 7.5 2.375 11.5s2.04199 7.25 2.625 9.75s1.95801 5.875 4.125 10.125
s3.66699 7.29199 4.5 9.125s2.83301 5.29199 6 10.375s5.25 8.45801 6.25 10.125s3.625 5.625 7.875 11.875s7.04199 10.458 8.375 12.625c2.16699 3.33301 5 5 8.5 5c2.66699 0 5.16699 -1.16699 7.5 -3.5c15.5 -16 29.667 -32.5 42.5 -49.5c1.5 -1.5 2.5 -3.75 3 -6.75
s0 -6.41699 -1.5 -10.25c-2.5 -4.66699 -5.375 -9.33301 -8.625 -14s-5.5 -8.54199 -6.75 -11.625s-2.125 -7.375 -2.625 -12.875c-0.333008 -3.16699 -1.54199 -6.45801 -3.625 -9.875s-4.375 -5.125 -6.875 -5.125z" />
    <glyph glyph-name="uniF201" unicode="&#xf201;" 
d="M512 64l-128 -96v64h-99.5c-11.667 0.5 -22.75 2.58301 -33.25 6.25s-19.75 8.29199 -27.75 13.875s-15.667 11.708 -23 18.375s-14.042 13.333 -20.125 20s-11.958 12.75 -17.625 18.25s-11.458 10 -17.375 13.5s-11.708 5.41699 -17.375 5.75h-128v128h128
c5.66699 0.333008 11.458 2.25 17.375 5.75s11.708 8 17.375 13.5s11.542 11.583 17.625 18.25s12.792 13.333 20.125 20s15 12.792 23 18.375s17.25 10.208 27.75 13.875s21.583 5.75 33.25 6.25h99.5v64l128 -96l-128 -96v64h-96
c-4.16699 -0.333008 -8.25 -1.08301 -12.25 -2.25s-7.41699 -2.41699 -10.25 -3.75s-6.125 -3.29199 -9.875 -5.875s-6.58301 -4.66699 -8.5 -6.25s-4.875 -4.08301 -8.875 -7.5s-6.75 -5.70801 -8.25 -6.875c-15.667 -16.5 -28.333 -37.5 -38 -63
c3.66699 -9.83301 8.79199 -20.708 15.375 -32.625s14.125 -22.375 22.625 -31.375c1.5 -1.16699 4.25 -3.45801 8.25 -6.875s6.95801 -5.91699 8.875 -7.5s4.75 -3.66699 8.5 -6.25s7.04199 -4.54199 9.875 -5.875s6.25 -2.58301 10.25 -3.75s8.08301 -1.91699 12.25 -2.25
h96v64z" />
    <glyph glyph-name="uniF26C" unicode="&#xf26c;" 
d="M512 0h-512v416h512v-416zM32 256v-96h64v-32h-64v-96h128v64h32v-64h128v64h32v-64h128v96h-64v32h64v96h-64v32h64v96h-128v-64h-32v64h-128v-64h-32v64h-128v-96h64v-32h-64zM112 112v192h288v-192h-288zM80 80h352v256h-352v-256zM128 288h128l128 -128v-32h-96z" />
    <glyph glyph-name="uniF24D" unicode="&#xf24d;" 
d="M128 192c0 -17.667 -6.25 -32.75 -18.75 -45.25s-27.583 -18.75 -45.25 -18.75s-32.75 6.25 -45.25 18.75s-18.75 27.583 -18.75 45.25s6.25 32.75 18.75 45.25s27.583 18.75 45.25 18.75s32.75 -6.25 45.25 -18.75s18.75 -27.583 18.75 -45.25zM320 192
c0 -17.667 -6.25 -32.75 -18.75 -45.25s-27.583 -18.75 -45.25 -18.75s-32.75 6.25 -45.25 18.75s-18.75 27.583 -18.75 45.25s6.25 32.75 18.75 45.25s27.583 18.75 45.25 18.75s32.75 -6.25 45.25 -18.75s18.75 -27.583 18.75 -45.25zM512 192
c0 -17.667 -6.25 -32.75 -18.75 -45.25s-27.583 -18.75 -45.25 -18.75s-32.75 6.25 -45.25 18.75s-18.75 27.583 -18.75 45.25s6.25 32.75 18.75 45.25s27.583 18.75 45.25 18.75s32.75 -6.25 45.25 -18.75s18.75 -27.583 18.75 -45.25z" />
    <glyph glyph-name="uniF26D" unicode="&#xf26d;" 
d="M437.44 416c23.3594 0 74.5596 -51.2002 74.5596 -74.5596v-298.881c0 -23.3594 -51.2002 -74.5596 -74.5596 -74.5596h-234.881c-23.3594 0 -74.5596 51.2002 -74.5596 74.5596v53.4404h32v-48c0 -8.92773 39.04 -48 48 -48h224c8.95996 0 48 39.0723 48 48v288
c0 8.92773 -39.04 48 -48 48h-64v32h69.4404zM160 336v-80h-32v85.4404c0 23.3594 51.2002 74.5596 74.5596 74.5596h69.4404v-32h-64c-8.95996 0 -48 -39.0723 -48 -48zM320 192v64l96 -80l-96 -80v64h-64v32h64zM0 128v96h224v-96h-224zM256 416v32h128v-32h-128z
M352.652 361.6h76.1475l35.2002 -32h-288l32 32h79.8965s20.1953 38.4004 32.1035 38.4004c9.67773 0 32.6523 -38.4004 32.6523 -38.4004z" />
    <glyph glyph-name="uniF21E" unicode="&#xf21e;" 
d="M192 320v32h256v-32h-256zM192 64v32h256v-32h-256zM192 192v32h192v-32h-192zM80 384h16h32v-64h16v-32h-16h-32h-16v32h16v32h-16v32zM64 256h80v-32h-16v-16h-32v16h-32v32zM64 160v32h96v-32h-96zM64 96v32h80v-32h-80zM112 64v32h48v-32h-48zM64 32v32h80v-32h-80z
" />
    <glyph glyph-name="uniF265" unicode="&#xf265;" 
d="M224 192v224h96v-224h-32v-32h-32v32h-32zM64 256v160h32v-128h96v-32h-128zM448 416h32v-160h-128v32h96v128zM217.6 160l53.4727 -54.4004l55.3281 54.4004l25.5996 -24.3203l-54.4004 -56.96l54.4004 -53.1201l-25.5996 -25.5996l-55.3281 54.4004l-53.4727 -54.4004
l-25.5996 25.5996l54.4004 53.1201l-54.4004 56.96z" />
    <glyph glyph-name="uniF1E1" unicode="&#xf1e1;" 
d="M352 384v-64h64zM448 288h-128v128h-160c-35.2959 0 -64 -28.7041 -64 -64v-320c0 -35.2959 28.7041 -64 64 -64h224c35.2959 0 64 28.7041 64 64v256zM160 448h176l144 -144v-272c0 -53.1201 -42.8799 -96 -96 -96h-224c-53.1201 0 -96 42.8799 -96 96v320
c0 53.1201 42.8799 96 96 96zM320 160h64v-32h-64v32zM384 192h32v-32h-32v32zM320 224h64v-32h-64v32zM384 128h32v-32h-32v32zM320 96h64v-32h-64v32zM192 320v32h64v-128h-32v96h-32zM160 192h96v-32h-96v32zM256 160h32v-32h-32v32zM192 128h64v-32h-64v32zM160 96h32
v-32h96v-32h-128v64z" />
    <glyph glyph-name="uniF263" unicode="&#xf263;" 
d="M512 0h-512v416h512v-416zM32 256v-96h64v-32h-64v-96h128v64h32v-64h128v64h32v-64h128v96h-64v32h64v96h-64v32h64v96h-128v-64h-32v64h-128v-64h-32v64h-128v-96h64v-32h-64zM112 112v192h288v-192h-288zM80 80h352v256h-352v-256z" />
    <glyph glyph-name="uniF23F" unicode="&#xf23f;" 
d="M64 0h384v144h64v-208h-443c-37.334 0.333008 -60.333 0.333008 -69 0v512h352v-64h-288v-384zM469 347.5l39 -38.5c2.66699 -3.33301 4 -7.16699 4 -11.5s-1.33301 -7.83301 -4 -10.5l-207.5 -212c-8.66699 -7.33301 -17.333 -11 -26 -11h-18.5
c-4.16699 0 -8.83301 1.125 -14 3.375s-9.16699 4.79199 -12 7.625l-97.5 100.5c-3 2.66699 -4.5 6.16699 -4.5 10.5s1.5 8.16699 4.5 11.5l38.5 38.5c2.66699 3.33301 6.16699 5 10.5 5s8.16699 -1.66699 11.5 -5l61.5 -62.5c3.33301 -3.33301 7.16699 -5 11.5 -5
s7.83301 1.66699 10.5 5l171 174c3 3 6.66699 4.5 11 4.5s7.83301 -1.5 10.5 -4.5z" />
    <glyph glyph-name="uniF239" unicode="&#xf239;" 
d="M192 128l-32 0.84375v27.9561l112 96l112 -96v-27.9561l-32 -0.84375v-64h-64v64h-32v-64h-64v64zM352 384v-64h64zM448 288h-128v128h-160c-35.2959 0 -64 -28.7041 -64 -64v-320c0 -35.2959 28.7041 -64 64 -64h224c35.2959 0 64 28.7041 64 64v256zM160 448h176
l144 -144v-272c0 -53.1201 -42.8799 -96 -96 -96h-224c-53.1201 0 -96 42.8799 -96 96v320c0 53.1201 42.8799 96 96 96z" />
    <glyph glyph-name="uniF1E5" unicode="&#xf1e5;" 
d="M352 384v-64h64zM448 288h-128v128h-160c-35.2959 0 -64 -28.7041 -64 -64v-320c0 -35.2959 28.7041 -64 64 -64h224c35.2959 0 64 28.7041 64 64v256zM160 448h176l144 -144v-272c0 -53.1201 -42.8799 -96 -96 -96h-224c-53.1201 0 -96 42.8799 -96 96v320
c0 53.1201 42.8799 96 96 96zM324.56 152.272l-16 -16l-9.2793 6.0791c-12.5127 12.4482 -32.96 12.4482 -45.4404 0l-60.1914 -50.5596c-12.4482 -12.5117 -12.4482 -39.3604 0 -51.8721l2.55957 -2.55957c12.5117 -12.4482 39.3604 -12.4482 51.8721 0l22.0479 28.5117
l16 -16l-28.7998 -35.2002c-18.8799 -18.8799 -51.4883 -18.8799 -70.3682 0l-16 16c-18.8799 18.8799 -18.8799 51.4883 0 70.3682l73.5996 64c18.8809 18.8799 45.0889 18.8799 64 0l16 -12.7676v0zM272 120.216l9.31152 -6.04785
c12.7686 -12.5117 32.9287 -12.5117 45.4404 0l60.1279 50.5596c12.7998 12.4482 12.7998 39.3281 0 51.8086l-2.55957 2.55957c-12.4482 12.5127 -39.0088 12.5127 -51.8086 0l-22.0801 -28.4795l-16 16l28.8008 35.2002c18.8799 18.9111 51.8398 18.9111 70.3994 0
l12.7686 -16c18.9111 -18.8809 18.9111 -51.5205 0 -70.4004l-70.4004 -64c-18.5596 -18.8799 -45.1201 -18.8799 -64 0l-16 12.7998z" />
    <glyph glyph-name="uniF251" unicode="&#xf251;" 
d="M352 384v-64h64zM448 288h-128v128h-160c-35.2959 0 -64 -28.7041 -64 -64v-320c0 -35.2959 28.7041 -64 64 -64h224c35.2959 0 64 28.7041 64 64v256zM160 448h176l144 -144v-272c0 -53.1201 -42.8799 -96 -96 -96h-224c-53.1201 0 -96 42.8799 -96 96v320
c0 53.1201 42.8799 96 96 96zM160 160v32h224v-32h-224zM160 96v32h224v-32h-224zM160 32v32h224v-32h-224z" />
    <glyph glyph-name="uniF218" unicode="&#xf218;" 
d="M219.25 52h49.75v-52h-49.75v52zM165.5 339.125c20.333 21.917 48.25 32.875 83.75 32.875c32.834 0 59.125 -9.375 78.875 -28.125s29.625 -42.708 29.625 -71.875c0 -17.667 -3.625 -32 -10.875 -43s-21.875 -27.167 -43.875 -48.5
c-16 -15.5 -26.375 -28.625 -31.125 -39.375s-7.125 -26.625 -7.125 -47.625h-44.5c0 23.833 2.83301 43.042 8.5 57.625s18.083 31.292 37.25 50.125l20 19.75c6 5.66699 10.833 11.583 14.5 17.75c6.66699 10.833 10 22.083 10 33.75c0 16.333 -4.875 30.5 -14.625 42.5
s-25.875 18 -48.375 18c-27.833 0 -47.083 -10.333 -57.75 -31c-6 -11.5 -9.41699 -28.083 -10.25 -49.75h-44.5c0 36 10.167 64.958 30.5 86.875z" />
    <glyph glyph-name="uniF1D8" unicode="&#xf1d8;" 
d="M352 95.9678v0v256.032h32v-256c0 -80 -64 -128 -128 -128s-128 48 -128 128v208c1.28027 62.7197 48.96 112 96 112c47.3604 0 96 -49.2803 96 -112v-175.072c0 -35.5195 -28.7998 -64.3193 -64 -64.3193c-35.2002 -0.320312 -64 28.1592 -64 63.3594v128h32v-128
c0 -17.5996 14.4004 -32 32 -32s32 14.4004 32 32v176c0.320312 30.4004 -18.2402 80 -64 80c-47.04 0 -63.3604 -49.5996 -64 -80c-0.639648 -23.3594 0 -171.2 0 -208c0 -46.7197 32 -96 96 -96s96 48 96 96z" />
    <glyph glyph-name="uniF20A" unicode="&#xf20a;" 
d="M256 -64c-34.667 0 -67.792 6.79199 -99.375 20.375s-58.792 31.792 -81.625 54.625s-41.042 50.042 -54.625 81.625s-20.375 64.708 -20.375 99.375s6.79199 67.792 20.375 99.375s31.792 58.792 54.625 81.625s50.042 41.042 81.625 54.625
s64.708 20.375 99.375 20.375s67.792 -6.79199 99.375 -20.375s58.792 -31.792 81.625 -54.625s41.042 -50.042 54.625 -81.625s20.375 -64.708 20.375 -99.375s-6.79199 -67.792 -20.375 -99.375s-31.792 -58.792 -54.625 -81.625s-50.042 -41.042 -81.625 -54.625
s-64.708 -20.375 -99.375 -20.375zM256 398.5c-28 0 -54.75 -5.45801 -80.25 -16.375s-47.458 -25.583 -65.875 -44s-33.083 -40.375 -44 -65.875s-16.375 -52.25 -16.375 -80.25s5.45801 -54.75 16.375 -80.25s25.583 -47.458 44 -65.875s40.375 -33.083 65.875 -44
s52.25 -16.375 80.25 -16.375s54.75 5.45801 80.25 16.375s47.458 25.583 65.875 44s33.083 40.375 44 65.875s16.375 52.25 16.375 80.25s-5.45801 54.75 -16.375 80.25s-25.583 47.458 -44 65.875s-40.375 33.083 -65.875 44s-52.25 16.375 -80.25 16.375zM324 305l45 -45
l-181 -181l-45 45z" />
    <glyph glyph-name="uniF266" unicode="&#xf266;" 
d="M384 224h96v-224h-96v224zM0 416h32v-256h96v256h32v-256h96v256h32v-256h32v-32h-320v288zM448 318.4v-64h-32v64h-64l80 97.5996l80 -96.96z" />
    <glyph glyph-name="uniF1EB" unicode="&#xf1eb;" 
d="M128 -33.5v90c-39 17 -70.083 40.292 -93.25 69.875s-34.75 61.791 -34.75 96.625s11.458 67.083 34.375 96.75s54.041 53.125 93.375 70.375s82.083 25.875 128.25 25.875s88.916 -8.625 128.25 -25.875s70.458 -40.708 93.375 -70.375s34.375 -61.916 34.375 -96.75
c0 -25.833 -7.04199 -50.708 -21.125 -74.625s-32.792 -44.417 -56.125 -61.5s-50.667 -30.75 -82 -41s-63.583 -15.375 -96.75 -15.375c-1 0 -10.042 -7.45801 -27.125 -22.375s-33.875 -29.792 -50.375 -44.625l-25 -22.5
c-2.16699 -2.16699 -5.20801 -3.66699 -9.125 -4.5s-6.70801 -0.833008 -8.375 0c-2.66699 1.16699 -4.625 3.83301 -5.875 8s-1.91699 7.5 -2 10s-0.125 6.5 -0.125 12zM242 80.5l14 1c37.5 0 72.208 6.33301 104.125 19s57.125 29.917 75.625 51.75
s27.75 45.583 27.75 71.25c0 25.5 -9.25 49.125 -27.75 70.875s-43.708 38.958 -75.625 51.625s-66.625 19 -104.125 19c-28.167 0 -54.958 -3.75 -80.375 -11.25s-47.292 -17.583 -65.625 -30.25s-32.917 -27.75 -43.75 -45.25s-16.25 -35.917 -16.25 -55.25
c0 -24.833 7.5 -47.042 22.5 -66.625s37.5 -37.375 67.5 -53.375l27.5 -14v-80.5z" />
    <glyph glyph-name="uniF216" unicode="&#xf216;" 
d="M232.641 376.297h52.7344l124.922 -344.297h-51.0938l-34.9219 103.125h-136.172l-37.2656 -103.125h-47.8125zM309.281 173.094l-52.2656 152.109l-55.5469 -152.109h107.812z" />
    <glyph glyph-name="uniF255" unicode="&#xf255;" 
d="M397.76 264l18.8799 -40.3203l31.3604 128.32l31.3604 -222.048l-191.04 29.4082l88.9424 31.3086c-19.291 64.0361 -83.7578 118.771 -148.782 118.771c-77.4727 0 -154.24 -78.0488 -154.24 -156.513c0 -78.6875 70.3682 -156.447 147.808 -156.447v-42.5605
c-108.479 0 -190.048 88.9277 -190.048 199.008c0 109.792 88 199.072 196.512 199.072c69.4922 0 130.472 -36.4785 165.456 -91.4941z" />
    <glyph glyph-name="uniF214" unicode="&#xf214;" 
d="M64 320v32h384v-32h-384zM128 192v32h320v-32h-320zM192 256v32h256v-32h-256zM192 64v32h256v-32h-256zM224 128v32h224v-32h-224z" />
    <glyph glyph-name="uniF26E" unicode="&#xf26e;" 
d="M32 32h256v-32h224v224h-32v160h-448v-352zM192 128v-96h-32v96h-128v32h128v96h-128v32h128v96h32v-96h128v96h32v-96h128v-32h-128v-32h-32v32h-128v-96h96v-32h-96zM512 416v-416h-512v416h512zM352 188.8l64 -64l64 64l28.7998 -28.7998l-64 -64l64 -64
l-28.7998 -28.7998l-64 64l-64 -64l-28.7998 28.7998l64 64l-64 64z" />
    <glyph glyph-name="uniF1F3" unicode="&#xf1f3;" 
d="M512 256v-96h-256v-160l-256 208l256 208v-160h256z" />
    <glyph glyph-name="uniF224" unicode="&#xf224;" 
d="M192 160v64h-96v32h96v64h32v-64h96v64h32v-64h96v-32h-96v-64h96v-32h-96v-64h-32v64h-96v-64h-32v64h-96v32h96zM224 160h96v64h-96v-64zM480 32h-416v320h416v-320zM448 320h-352v-256h352v256z" />
    <glyph glyph-name="uniF1F7" unicode="&#xf1f7;" 
d="M448 224h-128c-0.166992 -7.16699 -0.0419922 -14.208 0.375 -21.125s1.125 -13.583 2.125 -20s2.04199 -12.292 3.125 -17.625s2.54199 -10.792 4.375 -16.375s3.375 -10.25 4.625 -14s2.91699 -8.04199 5 -12.875s3.625 -8.29199 4.625 -10.375s2.5 -5.08301 4.5 -9
s3.08301 -6.125 3.25 -6.625c6.5 -13.333 16.458 -26.792 29.875 -40.375s27.333 -25.417 41.75 -35.5s28.375 -19.208 41.875 -27.375s24.667 -14.333 33.5 -18.5l13 -6.25c-34.5 0 -66.333 2.70801 -95.5 8.125s-54 12.375 -74.5 20.875s-39.042 19.083 -55.625 31.75
s-29.958 25.042 -40.125 37.125s-19 25.625 -26.5 40.625s-12.958 27.958 -16.375 38.875s-6.08301 22.75 -8 35.5s-2.95801 21.583 -3.125 26.5s-0.25 10.125 -0.25 15.625v0.5v0.5h-128l192 192z" />
    <glyph glyph-name="uniF1EF" unicode="&#xf1ef;" 
d="M192 192c0 42.6667 21.3333 64 64 64c42.6667 0 64 -21.3333 64 -64s-21.3333 -64 -64 -64c-42.6667 0 -64 21.3333 -64 64z" />
    <glyph glyph-name="uniF202" unicode="&#xf202;" 
d="M223.5 288h-127.5l160 160l160 -160h-128v-224h-64.5v224zM352 224h128c10 0 17.833 -2.70801 23.5 -8.125s8.5 -13.375 8.5 -23.875v-224.5c0 -9.66699 -2.875 -17.333 -8.625 -23s-13.542 -8.5 -23.375 -8.5h-448c-9.66699 0 -17.417 2.91699 -23.25 8.75
s-8.75 13.583 -8.75 23.25v224c0 10.5 2.83301 18.458 8.5 23.875s13.5 8.125 23.5 8.125h128v-64h-96v-160h384.5v160h-96.5v64z" />
    <glyph glyph-name="uniF233" unicode="&#xf233;" 
d="M32 345.605l22.4004 38.3945l233.215 -378.51l-28.415 -37.4902zM95.3652 382.845c0 0 154.199 -70.3701 186.636 -58.4453c39.499 14.5303 70.2637 74.7705 165.199 90.6006c-17.1904 -65.9199 20.7998 -77.6699 31.1094 -123.87
c-68.5693 -24.1299 -88.4541 -27.1748 -115.225 -76.335c-37.085 -100.795 -115.275 -92.5449 -115.275 -92.5449l-152.444 260.595v0z" />
    <glyph glyph-name="uniF1FD" unicode="&#xf1fd;" 
d="M160 448h224c26.5 0 49.125 -9.375 67.875 -28.125s28.125 -41.375 28.125 -67.875v-320c0 -26.5 -9.375 -49.125 -28.125 -67.875s-41.375 -28.125 -67.875 -28.125h-224c-26.5 0 -49.125 9.375 -67.875 28.125s-28.125 41.375 -28.125 67.875v320
c0 26.5 9.375 49.125 28.125 67.875s41.375 28.125 67.875 28.125zM448 32v320c0 17.667 -6.29199 32.75 -18.875 45.25s-27.625 18.75 -45.125 18.75h-224c-17.5 0 -32.542 -6.25 -45.125 -18.75s-18.875 -27.583 -18.875 -45.25v-320
c0 -17.667 6.29199 -32.75 18.875 -45.25s27.625 -18.75 45.125 -18.75h224c17.5 0 32.542 6.25 45.125 18.75s18.875 27.583 18.875 45.25z" />
    <glyph glyph-name="uniF28E" unicode="&#xf28e;" 
d="M437.396 345.6h-53.3965v53.3965l-30.9023 30.9023l18.1025 -7.49805h-140.8c-28.3574 0 -51.2002 -22.8428 -51.2002 -51.2002v-25.6006h-25.6006v25.6006c0 42.4961 34.3047 76.7998 76.8008 76.7998h140.8l115.2 -115.2v-217.6
c0 -42.4961 -34.3047 -76.7998 -76.8008 -76.7998h-25.5996v25.5996h25.5996c28.3574 0 51.2002 22.8428 51.2002 51.2002v211.2v-6.40039h-102.399v102.4h25.5996v-23.4043zM281.6 294.4v-51.2002h51.2002zM358.4 217.6h-102.4v102.4h-128
c-28.2363 0 -51.2002 -22.9629 -51.2002 -51.2002v-256c0 -28.2363 22.9639 -51.2002 51.2002 -51.2002h179.2c28.2363 0 51.2002 22.9639 51.2002 51.2002v204.8zM128 345.6h140.8l115.2 -115.199v-217.601c0 -42.4961 -34.3037 -76.7998 -76.7998 -76.7998h-179.2
c-42.4961 0 -76.7998 34.3037 -76.7998 76.7998v256c0 42.4961 34.3037 76.7998 76.7998 76.7998zM128 115.2v25.5996h179.2v-25.5996h-179.2zM128 64v25.5996h179.2v-25.5996h-179.2zM128 12.7998v25.6006h179.2v-25.6006h-179.2z" />
    <glyph glyph-name="uniF1E2" unicode="&#xf1e2;" 
d="M352 384v-64h64zM448 288h-128v128h-160c-35.2959 0 -64 -28.7041 -64 -64v-320c0 -35.2959 28.7041 -64 64 -64h224c35.2959 0 64 28.7041 64 64v256zM160 448h176l144 -144v-272c0 -53.1201 -42.8799 -96 -96 -96h-224c-53.1201 0 -96 42.8799 -96 96v320
c0 53.1201 42.8799 96 96 96zM208.32 299.392c10.5596 0 19.168 -9.31152 19.1992 -20.7998c0 -11.8398 -8.63965 -21.1201 -19.1992 -21.1201c-10.8486 0 -19.4883 9.28027 -19.4883 21.1201c0 11.4883 8.6084 20.7998 19.4883 20.7998zM335.68 299.392
c10.8799 0 19.5205 -9.31152 19.4883 -20.7998c0 -11.8398 -8.6084 -21.1201 -19.4883 -21.1201c-10.5596 0 -19.1992 9.28027 -19.1992 21.1201c0 11.4883 8.63965 20.7998 19.1992 20.7998zM272 318.56c10.8799 0 19.4883 -9.2793 19.4883 -21.1191
c0 -11.4883 -8.64062 -20.8008 -19.4883 -20.8008s-19.4883 9.3125 -19.4883 20.8008c0 11.8398 8.6084 21.1191 19.4883 21.1191zM381.76 240.832c1.60059 -1.3125 2.56055 -3.55176 2.33594 -5.75977c-1.95215 -21.792 -9.95215 -43.2324 -24.3193 -65.6318
c-13.7607 -20.832 -31.3926 -40.3203 -48.3203 -59.2002l-3.87207 -4.19238c-1.24805 -1.24805 -1.91992 -4.12793 -0.320312 -6.36816c4.19238 -5.12012 8 -10.8799 11.5205 -16.3193c16.96 -26.8799 25.9199 -52.5127 26.8799 -77.7607
c0.351562 -1.91992 -0.320312 -3.87207 -1.59961 -5.11914c-0.960938 -1.3125 -2.56055 -1.95215 -4.5127 -1.95215h-36.7676c-3.2002 0 -5.75977 2.55957 -6.08008 6.04785c-2.56055 38.1123 -32.3203 70.752 -64 105.632
c-16.96 18.8799 -34.5605 38.4004 -48.3203 59.2002c-14.3682 22.3994 -22.3682 43.8398 -24.3193 65.6318c-0.320312 2.24023 0.607422 4.44824 2.23926 5.75977c1.24805 0.927734 2.56055 1.60059 3.80859 1.60059l2.23926 -0.672852
c13.1201 -5.43945 26.5605 -9.56738 38.752 -12.7676c2.20801 -0.639648 4.41602 -2.55957 5.08887 -4.7998c8.95996 -26.208 31.6797 -51.2002 55.3271 -77.4404c1.02441 -0.959961 2.24023 -2.20801 4.5127 -2.20801c2.27148 0 3.51953 1.24805 4.51172 2.20801
c23.6484 26.2402 46.3682 51.2324 55.3281 77.4404c0.639648 2.24023 2.87988 4.44824 5.08789 5.12012c12.1924 2.87988 25.6318 7.04004 38.752 12.4795l2.24023 0.320312c1.24805 0 2.55957 -0.320312 3.80762 -1.24805zM232.32 80.5117
c11.168 -12.5117 18.5596 -21.4395 24.5762 -30.1436c1.34375 -1.60059 2.91113 -5.79199 0.671875 -9.91992c-6.08008 -12.5127 -9.28027 -24 -10.208 -35.8721c-0.288086 -3.48828 -2.84863 -6.04785 -6.08008 -6.04785h-36.7686
c-1.95215 0 -3.58398 0.639648 -4.51172 1.95215c-1.28027 1.24707 -1.95215 3.16797 -1.59961 5.11914c0.991211 24 8.99121 48.3203 24.6719 73.8887c0.607422 1.02344 2.20801 3.23145 4.76758 3.23145c2.24023 0 3.55176 -1.2793 4.48047 -2.20801zM272 221.28
c11.4883 0 18.2402 0.671875 20.7998 0.671875c2.87988 0 5.44043 -2.56055 5.44043 -6.08008c0 -0.959961 -0.320312 -1.59961 -0.320312 -2.20801c-1.63184 -4.51172 -8.67188 -20.5117 -21.792 -34.2402c-1.28027 -1.63184 -2.87988 -1.95215 -4.16016 -1.95215
c-1.2793 0 -2.87988 0.320312 -4.16016 1.95215c-13.1191 13.7598 -20.1592 29.7598 -21.792 34.2402c-0.319336 0.639648 -0.319336 1.24805 -0.319336 2.20801c0 3.51953 2.55957 6.08008 5.43945 6.08008c2.62402 0 9.37598 -0.671875 20.8643 -0.671875z" />
    <glyph glyph-name="uniF1D1" unicode="&#xf1d1;" 
d="M256 -64c-34.667 0 -67.792 6.79199 -99.375 20.375s-58.792 31.792 -81.625 54.625s-41.042 50.042 -54.625 81.625s-20.375 64.708 -20.375 99.375s6.79199 67.792 20.375 99.375s31.792 58.792 54.625 81.625s50.042 41.042 81.625 54.625
s64.708 20.375 99.375 20.375s67.792 -6.79199 99.375 -20.375s58.792 -31.792 81.625 -54.625s41.042 -50.042 54.625 -81.625s20.375 -64.708 20.375 -99.375s-6.79199 -67.792 -20.375 -99.375s-31.792 -58.792 -54.625 -81.625s-50.042 -41.042 -81.625 -54.625
s-64.708 -20.375 -99.375 -20.375zM256 398.5c-28 0 -54.75 -5.45801 -80.25 -16.375s-47.458 -25.583 -65.875 -44s-33.083 -40.375 -44 -65.875s-16.375 -52.25 -16.375 -80.25s5.45801 -54.75 16.375 -80.25s25.583 -47.458 44 -65.875s40.375 -33.083 65.875 -44
s52.25 -16.375 80.25 -16.375s54.75 5.45801 80.25 16.375s47.458 25.583 65.875 44s33.083 40.375 44 65.875s16.375 52.25 16.375 80.25s-5.45801 54.75 -16.375 80.25s-25.583 47.458 -44 65.875s-40.375 33.083 -65.875 44s-52.25 16.375 -80.25 16.375zM355.5 284
l26 -25.5c1.66699 -2.33301 2.5 -4.91699 2.5 -7.75s-0.833008 -5.08301 -2.5 -6.75l-138.5 -139.5c-6 -4.66699 -11.833 -7 -17.5 -7h-12c-3 0 -6.20801 0.708008 -9.625 2.125s-6.04199 3.04199 -7.875 4.875l-65.5 66c-1.66699 2 -2.5 4.41699 -2.5 7.25
s0.833008 5.25 2.5 7.25l26 25.5c1.66699 2.33301 4 3.5 7 3.5s5.5 -1.16699 7.5 -3.5l41.5 -41.5c2 -2 4.41699 -3 7.25 -3s5.25 1 7.25 3l114 115c2.33301 1.66699 4.91699 2.5 7.75 2.5s5.08301 -0.833008 6.75 -2.5z" />
    <glyph glyph-name="uniF1E6" unicode="&#xf1e6;" 
d="M448 32v256h-128v128h-160c-35.2959 0 -64 -28.7041 -64 -64v-320c0 -35.2959 28.7041 -64 64 -64h191.604l-57.876 50.8799c-11.8076 11.8398 -28.1279 17.9199 -44.7998 16.6396c-31.6475 -2.55957 -72 2.59277 -88 32.6406
c-20.7676 38.7197 -30.3682 79.3594 -32.9277 127.359l80 -80c27.8398 -1.59961 65.5996 36.1602 64 64l-80 80c43.4883 -1.91992 87.6797 -11.8398 127.36 -32.9277c30.0801 -16 35.1992 -56.3516 32.6396 -88c-1.28027 -16.6396 4.83203 -32.9922 16.6396 -44.7998
l77.4297 -77.4287c1.26074 5.00586 1.93066 10.2441 1.93066 15.6367zM416 320l-64 64v-64h64zM64 352c0 53.1201 42.8799 96 96 96h176l144 -144v-272c0 -53.1201 -42.8799 -96 -96 -96h-224c-53.1201 0 -96 42.8799 -96 96v320z" />
    <glyph glyph-name="uniF226" unicode="&#xf226;" 
d="M96 -64v32h416v-32h-416zM215.188 350.697v-190.413c0 -25 4.6875 -45.7812 14.0625 -62.3438c13.9062 -25 40.5439 -37.5 73.5127 -37.5c39.5312 0 63.2061 13.5156 77.4248 40.5469c7.65625 14.6875 11.4844 34.4531 11.4844 59.2969v190.413h47.3438v-170.96
c0 -42.3438 -5.70312 -74.9219 -17.1094 -97.7344c-20.9375 -41.5625 -60.4688 -62.3438 -118.594 -62.3438s-97.5781 20.7812 -118.359 62.3438c-11.4062 22.8125 -17.1094 55.3906 -17.1094 97.7344v170.96h47.3438z" />
    <glyph glyph-name="uniF1EC" unicode="&#xf1ec;" 
d="M512 161.5c0 -3.66699 -1.70801 -7.125 -5.125 -10.375s-7.04199 -5.125 -10.875 -5.625l-76.5 -14c-3.83301 -0.5 -6.41699 -2.125 -7.75 -4.875s-0.916992 -5.625 1.25 -8.625l43.5 -64.5c1.83301 -3 2.45801 -6.58301 1.875 -10.75s-2.20801 -7.58301 -4.875 -10.25
l-41 -41.5c-2.66699 -2.66699 -6.08301 -4.16699 -10.25 -4.5s-7.75 0.666992 -10.75 3l-64.5 43c-3 2 -5.91699 2.5 -8.75 1.5s-4.58301 -3.33301 -5.25 -7l-14 -77c-0.5 -3.5 -2.33301 -6.70801 -5.5 -9.625s-6.5 -4.375 -10 -4.375h-59
c-3.66699 0 -7.125 1.45801 -10.375 4.375s-5.125 6.125 -5.625 9.625l-14 76.5c-0.5 3.66699 -2.20801 6.08301 -5.125 7.25s-5.875 0.583008 -8.875 -1.75l-64 -43c-3.16699 -2 -6.79199 -2.83301 -10.875 -2.5s-7.45801 1.83301 -10.125 4.5l-41.5 41.5
c-2.66699 2.66699 -4.20801 6.08301 -4.625 10.25s0.291992 7.75 2.125 10.75l44 64.5c2 3 2.375 5.875 1.125 8.625s-3.625 4.375 -7.125 4.875l-76 14c-3.5 0.5 -6.625 2.375 -9.375 5.625s-4.125 6.70801 -4.125 10.375v59c0 3.5 1.375 6.83301 4.125 10
s5.875 5 9.375 5.5l75.5 14c3.83301 1 6.375 2.83301 7.625 5.5s0.875 5.5 -1.125 8.5l-44 64.5c-1.83301 3 -2.54199 6.5 -2.125 10.5s1.95801 7.33301 4.625 10l41.5 41.5c2.66699 2.66699 6.04199 4.25 10.125 4.75s7.70801 -0.25 10.875 -2.25l64 -44
c3 -1.83301 5.95801 -2.16699 8.875 -1s4.625 3.5 5.125 7l14 77.5c0.5 3.83301 2.375 7.375 5.625 10.625s6.70801 4.875 10.375 4.875h59c3.5 0 6.83301 -1.625 10 -4.875s5 -6.79199 5.5 -10.625l14 -76.5c0.666992 -3.5 2.41699 -5.91699 5.25 -7.25
s5.75 -1.08301 8.75 0.75l64.5 43.5c3 2.16699 6.45801 3 10.375 2.5s7.29199 -2.16699 10.125 -5l41.5 -41.5c2.66699 -2.5 4.20801 -5.79199 4.625 -9.875s-0.291992 -7.625 -2.125 -10.625l-44 -64.5c-2 -3 -2.375 -5.83301 -1.125 -8.5s3.79199 -4.5 7.625 -5.5
l77.5 -14c3.83301 -0.5 7.45801 -2.33301 10.875 -5.5s5.125 -6.5 5.125 -10v-59zM352 192c0 16.5 -4.41699 32.167 -13.25 47s-20.667 26.708 -35.5 35.625s-30.583 13.375 -47.25 13.375c-16.5 0 -32.167 -4.45801 -47 -13.375s-26.708 -20.792 -35.625 -35.625
s-13.375 -30.5 -13.375 -47s4.45801 -32.167 13.375 -47s20.792 -26.708 35.625 -35.625s30.5 -13.375 47 -13.375c16.667 0 32.417 4.45801 47.25 13.375s26.667 20.792 35.5 35.625s13.25 30.5 13.25 47z" />
    <glyph glyph-name="uniF26B" unicode="&#xf26b;" 
d="M160 288v96h32v-96h288v-32h-288v-224h-32v224h-128v32h128v0zM0 0v416h512v-416h-512zM32 384v-352h448v352h-448zM320 384h32v-96h-32v96zM32 160h128v-32h-128v32z" />
    <glyph glyph-name="uniF1E7" unicode="&#xf1e7;" 
d="M160 76.5l-50 -31c-2.33301 2.33301 -4 4.16699 -5 5.5c-20.5 22 -35.5 47.542 -45 76.625s-12.167 59.042 -8 89.875c3.16699 24.333 10.292 47.167 21.375 68.5s25.292 40 42.625 56c20.167 18.333 43.083 32.292 68.75 41.875s52.417 13.792 80.25 12.625l7 51.5
l85.5 -91.5l-106.5 -71l7 54c-19.5 0.5 -38.125 -2.70801 -55.875 -9.625s-33.625 -16.875 -47.625 -29.875c-26 -24.5 -41.5 -54.5 -46.5 -90c-3 -22.333 -1.04199 -44 5.875 -65s17.792 -39.5 32.625 -55.5c6 -6 10.5 -10.333 13.5 -13zM260.5 98l-7.5 -56.5
c19.5 -0.166992 38.25 3.20801 56.25 10.125s34.083 16.875 48.25 29.875c26.167 24.667 41.5 54.666 46 90c3 22.333 1.08301 44 -5.75 65s-17.583 39.5 -32.25 55.5c-6.66699 6.66699 -11.833 11.5 -15.5 14.5l50 31.5l7 -7.5c20.5 -22 35.5 -47.542 45 -76.625
s12.167 -59.042 8 -89.875c-3.16699 -24.333 -10.292 -47.167 -21.375 -68.5s-25.292 -40 -42.625 -56c-20 -18.5 -43.083 -32.583 -69.25 -42.25s-53.25 -13.75 -81.25 -12.25l-6.5 -49l-86 92.5z" />
    <glyph glyph-name="uniF203" unicode="&#xf203;" 
d="M192 448h223.5c26.667 0 49.417 -9.375 68.25 -28.125s28.25 -41.375 28.25 -67.875v-256c0 -21.167 -6.375 -40.208 -19.125 -57.125s-29.042 -28.542 -48.875 -34.875c-6 -20 -17.458 -36.333 -34.375 -49s-36.125 -19 -57.625 -19h-224
c-26.5 0 -49.125 9.375 -67.875 28.125s-28.125 41.375 -28.125 67.875v256c0 21.5 6.33301 40.708 19 57.625s29 28.375 49 34.375c6 20 17.458 36.333 34.375 49s36.125 19 57.625 19zM479.5 96v256c0 17.5 -6.25 32.542 -18.75 45.125s-27.583 18.875 -45.25 18.875
h-223.5c-11.833 0 -22.625 -2.91699 -32.375 -8.75s-17.458 -13.583 -23.125 -23.25h215.5c26.5 0 49.125 -9.375 67.875 -28.125s28.125 -41.375 28.125 -67.875v-247.5c9.66699 5.83301 17.333 13.667 23 23.5s8.5 20.5 8.5 32zM160 351.5h-31.5
c-17.667 0 -32.75 -6.25 -45.25 -18.75s-18.75 -27.583 -18.75 -45.25v-256c0 -17.667 6.25 -32.75 18.75 -45.25s27.583 -18.75 45.25 -18.75h31.5v384zM416.5 31.5v256c0 17.667 -6.29199 32.75 -18.875 45.25s-27.792 18.75 -45.625 18.75h-160v-255
c8.66699 -0.166992 16.875 0.166992 24.625 1s16.042 2.625 24.875 5.375s16.417 6.45801 22.75 11.125s11.75 11.125 16.25 19.375s7 17.958 7.5 29.125c-9.5 3.33301 -17.208 9.08301 -23.125 17.25s-8.875 17.583 -8.875 28.25c0 13.833 4.625 25.292 13.875 34.375
s20.625 13.625 34.125 13.625s24.875 -4.54199 34.125 -13.625s13.875 -20.542 13.875 -34.375c0 -10.833 -2.875 -20.292 -8.625 -28.375s-13.375 -13.792 -22.875 -17.125c-0.333008 -28.833 -12.417 -52.583 -36.25 -71.25s-54.583 -27.75 -92.25 -27.25v-96.5h160
c17.833 0 33.042 6.25 45.625 18.75s18.875 27.583 18.875 45.25z" />
    <glyph glyph-name="uniF211" unicode="&#xf211;" 
d="M126.048 158.049v0l210.88 210.881c24.96 24.96 56 16.6396 80.96 -8.32031l5.44043 -5.44043c24.96 -24.96 34.5596 -57.2793 9.59961 -82.2393l-210.88 -210.881l-126.048 -30.7197zM141.12 134.689v0l-34.5605 -91.5205l98.5605 40.3203z" />
    <glyph glyph-name="uniF245" unicode="&#xf245;" 
d="M256 -32c-123.712 0 -224 100.288 -224 224s100.288 224 224 224s224 -100.288 224 -224s-100.288 -224 -224 -224zM128 160h96v-96h64v96h96v64h-96v96h-64v-96h-96v-64z" />
    <glyph glyph-name="uniF254" unicode="&#xf254;" 
d="M237 306.5c-50.334 -25 -75.5 -54.333 -75.5 -88c21.5 -2.5 39.333 -11.333 53.5 -26.5c13.667 -15.667 20.5 -33.333 20.5 -53c0 -21.5 -6.83301 -39.333 -20.5 -53.5c-13.667 -14.667 -30.667 -22 -51 -22c-22.833 0 -42.5 9.5 -59 28.5
c-16.667 19.167 -25 42.167 -25 69c0 80.834 44.333 144.333 133 190.5zM432 306.5c-50 -25 -75 -54.333 -75 -88c21.167 -2.5 38.833 -11.333 53 -26.5c14 -15.5 21 -33.167 21 -53c0 -21 -6.83301 -38.833 -20.5 -53.5s-30.667 -22 -51 -22
c-22.667 0 -42.5 9.5 -59.5 28.5c-16.667 19.167 -25 42.167 -25 69c0 81 44.5 144.5 133.5 190.5z" />
    <glyph glyph-name="uniF24E" unicode="&#xf24e;" 
d="M288 288h160v-160h-160v64h-96v-160.279l96 -0.271484v64.5508h160v-160h-160v64h-128v288h-64v160h160v-160h-64v-64h96v64zM416 256h-96v-96h96v96zM224 416h-96v-96h96v96zM416 64h-96v-96h96v96z" />
    <glyph glyph-name="uniF225" unicode="&#xf225;" 
d="M448 64.1074c0 -53.1514 -43.0283 -96.1074 -96.1074 -96.1074h-255.785c-53.1514 0 -96.1074 43.0283 -96.1074 96.1074v255.785c0 53.1514 43.0283 96.1074 96.1074 96.1074h255.785c15.1689 0 29.5078 -3.50488 42.2539 -9.74707l-28.5781 -23.7109
c-4.40527 0.955078 -8.98047 1.45801 -13.6758 1.45801h-255.785c-35.4346 0 -64.1074 -28.6582 -64.1074 -64.1074v-255.785c0 -35.4346 28.6582 -64.1074 64.1074 -64.1074h255.785c35.4346 0 64.1074 28.6582 64.1074 64.1074v179.71l32 24.043v-203.753z
M491.467 447.096h20.5332v-19.7559l-304.419 -358.84l-122.109 100.953l35.8252 37.7334l86.2842 -84.9131z" />
    <glyph glyph-name="uniF247" unicode="&#xf247;" 
d="M256 368c-31.6797 0 -53.4404 -24 -53.4404 -56.6396v-87.3604h106.881v88.6396c0 32.6406 -21.7607 55.3604 -53.4404 55.3604zM362.56 308.16v-84.1602c29.4404 0 53.4404 -24 53.4404 -54.4316v-137.7c0 -17.4404 -14.2607 -31.9004 -31.8525 -31.9004h-256.295
c-17.2715 0 -31.8525 14.2822 -31.8525 31.9004v137.7c0 30.4316 24 54.4316 53.4404 54.4316v85.0879c0 65.6318 43.1992 106.912 106.88 106.912c63.6797 0 106.239 -42.2402 106.239 -107.84z" />
    <glyph glyph-name="uniF1E4" unicode="&#xf1e4;" 
d="M352 384v-64h64zM448 288h-128v128h-160c-35.2959 0 -64 -28.7041 -64 -64v-320c0 -35.2959 28.7041 -64 64 -64h224c35.2959 0 64 28.7041 64 64v256zM160 448h176l144 -144v-272c0 -53.1201 -42.8799 -96 -96 -96h-224c-53.1201 0 -96 42.8799 -96 96v320
c0 53.1201 42.8799 96 96 96zM352 192l96 -80l-96 -80v64h-96v32h96v64zM192 284.8v-60.7998h96v-32h-96v-67.2002l-96 80z" />
    <glyph glyph-name="uniF232" unicode="&#xf232;" 
d="M376.64 416v0h-241.248c-39.3594 0 -71.3594 -28.7041 -71.3594 -64v-320c0 -35.2959 32 -64 71.3594 -64h241.248c39.3604 0 71.3604 28.7041 71.3604 64v320c0 35.2959 -32 64 -71.3604 64zM376.64 448v0v0c56.96 0 103.36 -42.8799 103.36 -96v-320
c0 -53.1201 -46.4004 -96 -103.36 -96h-241.248c-56.96 0 -103.359 42.8799 -103.359 96v320c0 53.1201 46.3994 96 103.359 96h241.248zM192 384v32h64v-32h-64zM256 352v32h64v-32h-64zM192 320v32h64v-32h-64zM256 288v32h64v-32h-64zM192 256v32h64v-32h-64zM256 224v32
h64v-32h-64zM192 192v32h64v-32h-64zM256 160v32h64v-32h-64zM224 128v32h64v-32h-64zM192 64v64h32v-64h-32zM224 64v32h64v-32h-64zM288 64v64h32v-64h-32z" />
    <glyph glyph-name="uniF26F" unicode="&#xf26f;" 
d="M256 -32v96h224v-96h-224zM129.6 32h64v-32h-64v-64l-97.5996 80l96.96 80zM64 416v32h288v-320h-32v32h-256v32h256v96h-256v32h256v96h-256z" />
    <glyph glyph-name="uniF1DE" unicode="&#xf1de;" 
d="M352 384v-64h64zM448 288h-128v128h-160c-35.2959 0 -64 -28.7041 -64 -64v-320c0 -35.2959 28.7041 -64 64 -64h224c35.2959 0 64 28.7041 64 64v256zM160 448h176l144 -144v-272c0 -53.1201 -42.8799 -96 -96 -96h-224c-53.1201 0 -96 42.8799 -96 96v320
c0 53.1201 42.8799 96 96 96zM160 224v32h128v-32h-128zM160 128v32h224v-32h-224zM160 32v32h224v-32h-224zM96 224v32h32v-32h-32zM96 320v32h32v-32h-32zM96 128v32h32v-32h-32zM96 32v32h32v-32h-32zM416 224v32h32v-32h-32zM416 128v32h32v-32h-32zM416 32v32h32v-32
h-32zM352 -32v32h32v-32h-32zM352 224v32h32v-32h-32zM256 -32v32h32v-32h-32zM160 -32v32h32v-32h-32zM256 384v32h32v-32h-32zM256 320v32h32v-32h-32zM160 384v32h32v-32h-32zM160 320v32h32v-32h-32z" />
    <glyph glyph-name="uniF243" unicode="&#xf243;" 
d="M256 -33.2803c119.398 0 217.269 93.8867 223.667 211.716l-0.275391 -2.88379l-0.991211 -2.30371v1.66406l-0.320312 -1.34375l-0.320312 -1.56836l-0.639648 -2.30371l-0.671875 -1.98438v-1.63184l-0.352539 -1.3125v3.23242l-0.319336 1.31152l-0.959961 -1.02344
l-0.672852 -2.5918l-0.319336 -1.63184l-0.352539 -1.66406l-0.639648 -2.91211l0.320312 -2.5918l-0.320312 -2.62402l0.320312 -2.56055v-1.56836v-1.95117v-1.66406l-0.320312 -1.60059l-0.320312 -1.31152l-0.319336 -2.91211l-0.640625 -2.94434l-0.351562 -1.31152
l-0.320312 -1.3125l-0.992188 -3.23145l-0.639648 -1.3125l-0.992188 -1.59961l-0.671875 -1.34375l-0.959961 -2.27246l0.320312 2.55957v2.91211l0.319336 1.3125l-0.319336 2.30371v1.63184l-0.992188 0.959961l0.671875 3.23242l-0.992188 -2.30371l-0.671875 -2.91211
l-0.639648 -1.28027l-0.640625 -2.24023l-0.319336 -1.63184l-0.671875 -1.28027v-2.5918l-0.352539 -1.34375l-0.320312 -2.5918l-0.639648 -2.59277v-2.55957l0.320312 -1.59961l-0.640625 -3.2002l-0.319336 -1.60059l-1.02441 -2.5918l-0.959961 -2.27148
l-0.639648 -2.91211l-1.02441 -1.91992v2.5918l0.352539 1.34375l0.319336 2.62402l0.671875 2.5918l0.640625 1.56836l0.319336 1.63184l0.672852 2.56055l0.319336 2.55957l0.352539 2.62402l0.319336 2.27246v1.8877l0.640625 1.28027l0.639648 2.5918l0.671875 1.91992
l0.352539 1.31152l0.639648 2.91211l0.320312 2.5918l0.319336 2.27246l0.320312 3.26367l0.320312 2.59277l0.351562 2.55957l0.320312 2.62402l-0.671875 2.87988l-0.320312 -2.62402l-0.959961 -1.28027l-0.639648 -1.34375l-0.352539 1.8877l-0.671875 -1.2793
l1.02441 4.19141v3.2002v2.91211c-0.352539 0.320312 -0.352539 0.992188 0 1.66406l-1.02441 1.91992l-0.320312 1.91992l-0.319336 1.3125v1.56738v2.5918l-0.640625 1.9209l-0.671875 1.31152v-1.59961v-1.63281l-0.671875 -1.24805l-0.320312 1.9209l-0.959961 -1.63281
l-0.319336 -1.31152l-0.671875 1.91992l-0.672852 -1.63184l-0.959961 -0.992188v-1.59961l-0.319336 -1.66406l-0.320312 -1.3125l-0.671875 -1.31152l-0.992188 -0.959961l-0.927734 -2.24023l-0.671875 -1.28027l-1.28027 -2.55957l-0.639648 -1.3125l-1.02441 -1.31152
l-0.320312 -1.60059l-0.575195 -1.31152l-1.02441 -1.24805l-0.639648 -1.28027l-0.640625 -1.59961v-1.63184l-0.671875 -4.16016v-1.63184l-0.959961 -1.95215l-0.639648 -1.56836v-1.63184l-0.640625 -2.55957l-1.34375 -1.95215l-0.639648 -2.24023l-1.60059 -1.34375
l-0.671875 -1.63184l-1.28027 -0.672852l-0.351562 1.63281v2.23926l0.351562 2.56055v1.91992l0.320312 1.8877l-0.671875 1.91992l-0.320312 1.88867l0.320312 1.91992v1.63184v1.59961v1.60059l-0.671875 3.55176v2.55957v1.91992l-0.320312 2.56055l0.320312 1.91992
v2.91211l-0.320312 2.87988l0.320312 2.91211v2.87988v1.66406l0.671875 1.91992l-1.31152 -2.5918l-0.320312 -1.60059l-1.63184 -1.95215l-2.24023 1.95215l-0.671875 1.91992l0.671875 1.60059l0.992188 2.27148l-1.3125 -0.639648l-1.2793 0.639648l-0.320312 1.95215
l0.639648 1.24805l-1.31152 -0.607422l-1.63184 1.63184v1.59961l-0.320312 1.63184l-1.34375 1.95215l-1.91992 -0.320312l-2.30469 -0.671875h-1.66406l-1.95215 -0.319336h-1.95117l-1.98438 0.639648l-1.59961 0.671875l-1.60059 0.639648l-1.34375 -0.319336
l-1.56836 1.56738l-0.319336 1.3125l-0.671875 2.5918l-2.30469 -0.671875l-1.59961 -1.8877l-1.3125 0.927734l-1.95215 0.959961l-1.34375 2.24023l-1.95215 1.02344l-1.31152 0.320312l-0.959961 3.2002l-0.671875 1.95215l-0.959961 1.91992l-0.640625 1.2793
l-1.31152 -0.287109l-0.992188 0.959961v-1.63281l-1.31152 -0.288086l0.351562 -1.59961l-1.3125 -0.320312l1.34473 -1.95117s0.319336 -0.992188 0.319336 -1.3125l0.959961 -2.91211l1.82422 -1.31152l0.959961 -1.63184l0.640625 -3.84082l0.991211 -2.23926
l0.640625 -1.28027l-0.320312 1.31152l0.639648 1.91992l0.992188 -2.55957v-2.27246l0.671875 -2.27148l2.59277 0.959961l2.27148 0.896484l1.3125 2.5918l1.2793 2.55957l1.28027 1.60059l0.639648 1.2793l0.320312 -2.91211v-2.91211l0.671875 -1.56738
l0.959961 -1.63184l2.91211 -0.320312l0.640625 -1.95215l0.991211 -2.24023v-2.62402l-1.31152 -2.5918l-0.639648 -2.55957l-1.34473 -0.288086l-0.319336 -1.60059l-0.320312 -1.34375l0.320312 -1.8877l-1.9209 -0.352539l-0.959961 -1.2793l-1.2793 -1.95215
l-1.3125 -0.959961l-0.959961 -2.5918l-2.5918 -0.959961l-2.27246 -0.352539l-0.639648 -1.28027l-0.320312 -1.59961l-1.31152 -0.992188l-2.55957 -1.31152l-2.88086 -1.28027l-0.639648 -1.24805l-1.31152 -0.671875l-2.27246 -1.63184l-2.52832 -0.320312
l-1.9834 -0.351562l-1.66406 -1.60059l-1.28027 -0.639648h-1.34375l-0.320312 2.87988l-0.320312 1.8877v2.87988l-0.639648 1.60059l0.639648 1.31152v1.91992l-0.319336 2.20801l-1.28027 1.63281l-1.28027 2.55957l-0.959961 4.51172l-1.66406 1.60059
l-0.959961 0.991211l-1.63184 2.59277l-0.320312 3.2002l0.320312 1.59961l-0.639648 1.63184l-0.320312 1.59961l-0.320312 1.60059l-1.34375 1.31152l-1.28027 0.992188l-1.02344 2.5918l-0.959961 1.91992l-0.320312 1.3125l-0.320312 1.31152l-0.671875 1.60059
l-1.31152 2.27148s-1.28027 1.60059 -0.927734 1.95215h-1.34473v1.56836v2.87988l-0.639648 -2.5918l-0.639648 -3.2002l-1.95215 2.27148l-0.992188 2.59277l-1.28027 1.59961v-1.63184l0.959961 -1.95215l1.60059 -1.56836v-1.66309l1.2793 -2.27246v-2.5918
l1.60059 -2.87988l0.671875 -1.24805l0.959961 -2.24023l0.639648 -1.34375v-1.60059v-2.87988l1.60059 -0.639648l1.63184 -2.27246l0.320312 -1.31152v-2.5918l0.671875 -2.56055l-0.320312 -2.55957l0.992188 -2.56055l0.927734 -1.56738l1.66406 -1.63281
l0.639648 -3.4873l0.320312 -3.2002l1.3125 -1.63184l1.63184 -0.959961l1.34375 -1.63184l0.639648 -1.28027l1.3125 -1.63184l0.671875 -1.95215l1.28027 -2.27246l-1.28027 -2.55957l2.24023 -3.55176l1.72754 -0.320312l1.95215 1.31152h1.98438l1.56738 0.959961
l2.30469 0.640625l1.31152 -0.320312l1.28027 0.959961h3.45605l1.2793 1.34375l0.320312 -1.34375l-0.320312 -2.62402l-0.959961 -1.95215l-0.319336 -2.55957l-0.992188 -1.3125l-1.28027 -2.27148l-0.992188 -1.59961l-1.91992 -4.48047l-1.31152 -1.95215
l-2.24023 -3.51953l-2.24023 -2.87988l-3.23145 -2.88086l-0.928711 -1.31152l-1.59961 -0.639648l-3.23145 -3.2002l-1.9209 -1.95215l-1.63184 -1.63184l-2.55957 -3.2002l-1.28027 -1.59961l-1.28027 -1.3125l-1.66406 -1.28027l-0.959961 -1.34375l-0.639648 -1.56836
l-1.63184 -1.63184l-1.60059 -2.91211l-0.671875 -1.59961l0.352539 -1.37598v-1.91992l-0.671875 -2.24023l-0.640625 -1.66406l-0.319336 -2.5918l0.319336 -2.24023l0.320312 -2.27148l-0.959961 -1.3125l-0.671875 -2.5918l-0.671875 -1.91992l-0.640625 -1.24805
l-0.319336 -1.95215l-0.640625 -1.28027l-1.66406 -1.95117l-1.31152 -1.66406l-2.5918 -1.91992l-1.60059 -0.959961l-2.27148 -0.960938l-1.91992 -1.63184l-1.28027 -1.2793l-2.27246 -1.63281l-1.2793 -0.639648l-1.34473 -1.66406s-0.319336 -1.56836 0 -1.56836
l-0.319336 -1.66309l-0.640625 -1.9209l-0.991211 -2.27148l-0.352539 -1.3125l-1.91992 -1.95117l-1.28027 -0.640625l-1.91992 -0.319336l-1.63184 -1.28027l-1.34375 -1.95215l-0.320312 -1.34375l-0.959961 -1.56836l-0.992188 -1.63184l-1.59961 -1.28027
l-1.98438 -1.66406l-1.2793 -0.959961l-1.95215 -2.27148l-1.63184 -1.34473l-4.16016 -3.19922l-1.63184 -0.928711l-2.30469 -0.991211l-1.59961 -0.992188h-2.30371l-2.30469 0.319336l-1.9834 -0.959961h-2.27246l-1.95215 -0.319336l-1.34375 1.2793v2.62402
l1.34375 1.98438v2.5918v2.87988l-0.319336 1.95215l-1.02441 1.91992l-0.320312 1.63184v2.59277l0.320312 1.59961l0.351562 1.59961l-0.351562 1.95215l0.351562 2.87988v3.80859l-0.959961 2.55957l-0.639648 2.91211l-1.31152 2.52832l0.351562 3.23145
l0.671875 3.2002l0.959961 1.56836l0.992188 2.91211l1.91992 2.87988l1.3125 0.959961l1.24805 1.91992l0.319336 3.23242l-0.639648 2.55957l-0.640625 1.56836l1.24805 2.23926l-0.639648 1.3125l0.320312 2.20801l-1.24805 1.59961l0.319336 1.3125l-0.991211 0.992188
l-0.352539 2.91113l-0.639648 1.3125l-1.3125 1.63184l-0.991211 0.992188l-0.928711 1.28027l-1.34375 2.30371l-0.959961 2.5918l-0.320312 1.56836l1.63184 2.27148l0.672852 1.63184l-0.672852 1.24805l0.960938 1.3125l0.639648 1.24805l0.639648 3.55176
l-0.319336 1.59961l-0.320312 1.3125l-1.63184 1.56836l-1.95215 -0.288086l-2.27246 -0.320312l-3.55176 -0.320312l-1.91992 1.88867l-0.992188 2.55957l-0.959961 1.28027l-1.91992 1.28027l-1.8877 -0.320312l-1.95215 -0.671875l-2.87988 -0.608398l-1.63184 -0.320312
l-1.24805 -0.671875l-1.63184 -1.59961h-1.56836l-2.56055 -1.28027l-2.55957 0.671875l-2.27246 0.928711l-1.63184 -0.640625h-3.4873l-2.88086 -0.992188l-1.95117 -1.2793l-2.88086 0.927734l-2.87988 1.95215l-1.59961 1.95215l-1.59961 0.927734l-0.959961 0.959961
l-1.60059 0.992188l-1.63184 0.927734l-1.59961 1.66406l-0.672852 1.59961l-0.991211 2.59277l-0.320312 1.31152l-0.992188 1.59961l-1.31152 0.672852l-1.63281 1.24805l-0.351562 1.95117l-1.82422 1.3125l-0.704102 1.31152l-2.27148 0.959961l-0.992188 1.34473
l-0.288086 2.91211l-0.639648 2.30371l-0.640625 1.24805l-0.991211 0.959961l1.63184 1.59961l0.927734 1.63184v2.20801l0.351562 2.20801l0.992188 3.2002l-0.671875 3.52051l-0.959961 1.24805l1.34375 2.5918l-1.31152 1.31152l-0.959961 1.91992l0.320312 1.9209
l0.639648 1.63184l0.959961 2.5918l0.959961 2.27148l1.28027 2.24023l1.2793 2.20801l1.60059 3.9043l0.992188 1.28027l2.5918 1.31152l1.91992 4.12793l2.55957 0.671875l2.20801 2.20801l1.95215 1.91992l1.95215 3.52051v1.91992l-0.671875 1.95215l0.959961 1.59961
l1.24805 2.20801l0.639648 2.24023l1.3125 0.992188l1.2793 0.671875l1.88867 1.56738l2.91211 2.59277v1.63184l1.34375 3.2002l1.95215 -0.959961l1.31152 -1.3125l1.63184 0.671875l2.24023 -0.351562l0.992188 1.02344l0.320312 -1.31152l1.59961 -0.320312
l2.24023 0.640625l1.63184 1.66406l1.59961 0.639648l1.4082 1.34375l1.34375 0.320312l1.9209 0.927734l1.91992 0.320312l1.66406 0.351562l1.95117 0.640625l1.3125 -0.352539l2.20801 -0.671875l1.28027 0.671875l2.23926 0.992188h1.95215l1.60059 -0.992188
l2.36719 0.352539l1.63281 1.2793l1.63184 0.320312l0.671875 -1.28027l0.959961 -0.959961l1.31152 0.288086l-0.671875 -1.59961l-0.671875 -1.28027l1.63184 -1.59961v-2.59277l-2.27148 -2.23926l0.319336 -1.91992l1.28027 -0.959961l1.3125 -0.640625
l2.55957 -1.66406h3.2002l2.24023 -0.319336l2.87988 -0.960938l0.639648 -2.23926l0.992188 -1.95215l2.20801 -0.320312l2.87988 -1.28027l1.28027 -0.671875l1.95215 -1.8877l1.59961 -0.320312l0.959961 1.28027l0.959961 1.59961l-0.959961 2.20801v1.63281
l0.639648 1.2793l1.60059 1.60059l2.55957 0.639648l2.59277 -0.639648l0.959961 -1.63184l2.27148 -0.672852l2.24023 -0.319336l1.31152 -1.60059l2.24023 -0.351562h1.91992l2.27246 -0.639648l2.23926 -0.640625l1.9209 -0.671875l1.63184 1.28027l2.5918 0.992188
l1.31152 -0.352539l1.3125 -1.59961l1.91992 0.992188h2.27148l1.28027 1.95117l0.671875 1.9209v2.20703l0.640625 1.9209l0.639648 1.63184l0.352539 2.55957v2.87988l-0.352539 2.87988l0.352539 2.27246l-1.3125 -0.351562l-1.31152 0.351562l-2.56055 -1.95215
l-3.87207 -0.320312l-1.28027 1.60059l-1.2793 0.671875l-1.91992 -0.671875l-1.60059 -1.28027l-1.9834 0.320312l-0.320312 1.31152l-1.98438 0.352539l-2.30371 -0.352539l1.63184 0.992188h-2.27148l0.319336 1.59961l-0.639648 1.95215l-1.98438 1.66406
l0.672852 1.3125l-0.320312 2.94336l-1.63184 0.672852l0.319336 2.62402l1.60059 0.959961l1.95215 -0.320312h1.34375h1.56738l1.3125 1.95215h-1.34375l-0.640625 1.2793l1.95215 0.320312l2.5918 -0.320312l1.56836 1.98438l2.27246 0.959961l1.63184 0.992188
l1.91992 -0.352539l1.59961 -0.319336l1.28027 -0.927734l1.31152 0.607422l0.640625 -1.59961l2.27148 -0.640625l1.3125 -0.319336l1.28027 -0.640625l1.91992 0.640625l2.27148 -0.640625l1.60059 1.63184l1.02344 1.28027l-0.671875 2.27246l-0.671875 1.59961
l-1.28027 1.60059l-1.66406 0.639648l-0.959961 0.959961l-1.34375 1.31152l-0.959961 0.992188l-2.27246 1.60059l-1.91992 0.607422l-1.2793 1.95215l0.959961 0.959961l-0.320312 1.63184l0.639648 1.3125l-0.639648 1.31152l1.21582 1.95215l0.288086 1.56836
l-1.95215 -0.320312l-1.9834 -0.959961l-0.640625 -1.34375l-1.9834 -0.640625l-0.959961 0.992188l0.639648 -1.31152l-0.639648 -1.28027l-1.98438 0.351562l0.992188 -1.31152l1.31152 -1.95215l-0.959961 2.87988l0.671875 -1.31152l1.91992 -1.28027h2.27246
l-0.927734 -1.63184l-1.60059 -0.959961l-2.55957 -1.28027l-1.28027 0.639648v1.63281l-1.63184 0.959961l0.351562 1.63184l-0.991211 1.63184l-1.95215 0.671875l-1.28027 0.959961l1.31152 0.320312l-2.30371 0.320312l-0.992188 -1.9209l-0.639648 -1.31152
l-1.3125 -1.59961l0.672852 -1.95215l-1.02441 -0.959961l-1.28027 -1.28027l0.640625 -2.87988l-0.320312 -1.3125l-0.959961 -2.20801v-1.63184l0.959961 -1.63184l1.59961 -2.20801l0.768555 -1.95215l-0.671875 -1.28027h-1.91992l-0.640625 -1.31152
l-1.31152 -0.639648l-1.60059 0.991211l-2.5918 1.3125l-1.63184 -0.320312l-1.31152 -2.30371l0.15918 -1.66406l-0.991211 1.02441l-1.28027 1.24707l-1.02441 -2.27148l1.02441 -1.59961l0.927734 -0.992188v-1.60059l-0.639648 1.28027l-0.671875 -1.95215
l1.31152 -0.992188l2.5918 -1.59961l-0.319336 -1.59961l-1.63281 -0.640625l1.02441 -1.34375h-1.34375l0.992188 -2.91211l-1.60059 1.34375v-1.91992l-0.639648 1.63184l-1.98438 0.992188l-0.992188 2.30469l-0.319336 1.56738l1.95215 1.02441l0.959961 -0.992188
l-1.60059 1.02441l-1.9834 0.927734l-0.512695 1.63184l-1.63184 1.85645l-0.639648 1.31152l-0.640625 1.59961l-0.959961 0.992188l-0.671875 1.60059v1.59961l0.320312 1.95215l-1.56836 1.24805l-1.63184 1.95215l-1.91992 0.927734l-1.28027 1.02441l-0.959961 1.56738
l-2.23926 0.320312l-1.98438 1.34375v1.63184l-1.28027 1.88867l-0.671875 1.31152l-1.28027 -0.671875l-1.66406 0.0322266l0.320312 2.23926l-1.28027 0.672852l-1.66406 -1.3125l-0.319336 -1.63184v-1.8877l0.319336 -1.3125l1.3125 -0.639648l0.959961 -0.992188
l2.27148 -2.87988l0.320312 -1.3125l0.992188 -1.2793l1.28027 -1.3125l2.27148 -0.320312l0.320312 -1.31152l1.91992 -0.992188l2.24023 -1.24805l1.2793 -1.31152l1.60059 -1.24805v-1.66406l-1.63184 1.66406l-2.27246 0.639648l-0.639648 -2.5918l1.63184 -1.98438
v-1.56738l-0.992188 -2.27246l-0.959961 -1.34375l-1.02344 -0.959961l-0.640625 1.59961l0.640625 1.3125l0.351562 2.30371l-0.671875 2.55957l-0.959961 1.24805l-1.98438 1.02441l-1.28027 1.95215l-2.30371 1.59961l-1.66406 0.320312l-1.91992 1.28027
l-1.59961 2.27148l-1.3125 0.959961l-0.992188 1.28027l-1.31152 1.02441l-0.320312 1.56738l-1.31152 2.27246l-1.3125 0.639648l-1.91992 0.671875l-1.63184 -1.91992l-1.59961 -0.320312l-1.60059 -1.63184l-0.992188 -1.2793l-1.59961 0.319336l-1.59961 1.24805
l-1.3125 -0.320312l-1.95215 0.640625l-0.927734 -1.24805l-0.992188 -2.27246v-1.63184l-0.351562 -2.5918l-1.56836 -1.3125l-1.95215 -0.319336l-1.31152 -0.992188l-1.95215 -2.87988l-0.959961 -2.24023l0.671875 -2.24023v-1.63184l-0.671875 -1.24805
l-0.959961 -1.31152v-1.60059l-2.87988 -1.59961l-0.640625 -1.28027l-1.34375 0.671875l-1.59961 -0.319336l-2.5918 -0.352539l-1.95215 -0.959961l-1.60059 -1.28027l-1.8877 -0.351562l-0.992188 1.28027l-0.319336 1.63184l-1.24805 1.24805l-1.3125 0.320312
l-2.24023 -0.640625l-1.2793 0.640625l-1.28027 -0.640625l0.671875 1.60059l0.320312 2.5918l-1.34473 1.28027l0.320312 1.31152l-0.671875 1.91992l0.671875 1.95215l0.959961 1.91992l0.320312 1.91992l0.320312 3.2002l-0.640625 1.8877l-0.320312 1.66406
l-0.351562 2.5918l1.59961 0.320312l0.959961 0.959961l2.27246 0.671875l2.27246 -0.671875h2.55957l2.24023 -0.320312l2.23926 0.320312l1.24805 -0.639648l1.95215 0.319336l2.27246 -0.288086l1.28027 2.27246l0.671875 2.55957l-0.671875 1.28027l0.671875 1.91992
l1.2793 -1.91992l-0.639648 1.91992l-0.992188 1.3125v1.63184l-1.31152 0.671875l-1.3125 1.28027v1.63184l-0.992188 1.63184l-2.62402 0.639648l-1.91992 0.352539v1.63184l-0.991211 1.3125l1.31152 0.351562l1.91992 0.639648l2.5918 -0.959961l1.95215 0.992188
l-0.639648 3.23242l1.28027 -0.640625l1.66309 -0.639648l2.56055 0.320312l-0.671875 1.2793l1.91992 0.320312l1.95215 2.55957l0.992188 1.66406l1.2793 1.28027l1.95215 0.320312l0.671875 1.63184v2.30371l1.28027 2.27246l1.63184 1.28027l2.30371 0.671875
l1.56836 -0.320312l1.3125 1.31152l0.639648 -1.31152l0.639648 1.28027l1.66406 0.639648l1.91992 -0.927734l-2.55957 1.24805l-0.352539 1.34375l-0.319336 1.95215l-0.671875 1.95215l-0.640625 1.34375l-0.319336 1.56836v2.62402l1.63184 0.991211l0.992188 -0.991211
l-0.320312 1.34375l1.59961 -1.02441l1.98438 -0.959961l-1.63184 -0.992188l0.319336 -1.31152l-1.2793 -2.30371l0.639648 -2.94434l1.34375 -0.320312l1.95215 -0.319336l-0.351562 -1.3125l1.34375 -0.351562l1.63184 1.66406l2.27246 -0.320312l1.34375 -1.66406
l1.28027 -0.639648l1.34375 1.95117l1.8877 0.640625l1.63184 1.31152l0.992188 0.992188l1.60059 0.320312l2.23926 -0.992188l1.21582 -0.671875l2.04883 0.992188l0.639648 1.2793l0.320312 1.63281l-0.320312 -1.9209l0.959961 1.3125l-0.671875 2.24023
l-0.959961 2.5918l0.639648 2.27148l-0.319336 1.3125l0.991211 0.959961l2.91211 -1.95215l1.3125 -0.639648l0.639648 1.91992l-0.639648 2.20801l-0.320312 1.59961l-1.66406 0.671875l-0.959961 3.26465l1.95215 1.2793l1.59961 0.992188l1.98438 -0.671875
l2.87988 0.320312l1.63184 1.9834l-1.66406 1.66406h-1.9834l-2.27246 -0.351562l-1.95215 -0.320312l-1.66406 -0.992188l-1.2793 -0.639648l-1.34473 0.0322266l-1.2793 1.91992l-1.34473 0.351562l-1.95117 0.320312l-0.352539 3.55176l-0.320312 1.3125
l-0.959961 2.27148l-0.639648 1.3125l-0.351562 2.62402l1.63184 0.959961l0.992188 1.9834v1.63281l0.671875 1.2793l0.639648 1.3125l0.320312 2.5918l-1.60059 0.671875l-1.31152 0.320312h-1.98438l-1.95215 -0.320312l-0.319336 -1.66406l0.992188 -2.5918v-2.30371
v-1.56836l-0.992188 -1.34375l-1.63184 -1.28027l-0.320312 -1.34375l-1.02441 -1.28027l-0.639648 -1.34375l0.320312 -1.60059l0.319336 -2.91113l0.671875 -2.30469l2.04883 -0.992188l1.63184 -1.95117l0.319336 -1.34473l-0.639648 -1.2793l-1.98438 0.639648
l-1.63184 -0.639648l1.95215 -0.671875l1.66406 -0.992188l-1.98438 -1.28027l0.0322266 -1.98438l0.640625 -1.31152l-0.320312 -1.3125l-0.320312 -1.63184l0.320312 -1.63184l-0.320312 -1.63184l-0.639648 -1.60059l-2.27246 0.672852l-0.639648 -2.88086
l-2.5918 0.320312l-0.671875 1.24805l-0.256836 1.34375l0.320312 1.60059l-1.31152 0.671875l-1.63281 2.20801l-0.671875 1.95215l-0.319336 1.66406l-1.02441 1.91992v1.59961l-1.34375 1.98438l-0.640625 1.2793l-0.319336 -1.59961v-1.98438l-1.34375 0.320312
l-0.959961 0.992188l0.959961 -2.27246l-1.60059 -1.9834l-1.02344 -0.959961l-1.9209 -0.992188l-1.66309 1.31152l-2.27246 1.28027l-0.320312 1.95215l1.95215 -0.992188l-0.671875 2.27246l-1.31152 -0.352539l-0.959961 1.3125l1.59961 0.959961v1.9834
l1.02441 1.28027l-1.63281 -1.28027l-0.319336 2.30469l-0.992188 0.992188h2.30371l1.3125 -0.320312l0.639648 1.31152l-1.95215 -0.351562h-2.30371l-0.671875 1.34375l1.37598 1.60059l-0.992188 1.02344l1.31152 0.320312l1.82422 0.639648l-1.34375 1.3125
l1.98438 -0.671875l0.959961 1.34375l-1.95215 0.319336l1.63184 0.320312l1.98438 0.320312l-1.3125 0.320312l1.63184 1.9834l1.63184 -1.31152l1.63281 1.63184l0.671875 1.9834l-0.671875 -1.34375l-1.63281 -1.24805l-0.991211 1.28027l0.671875 1.34375
l1.15137 2.30371l0.959961 1.28027l1.66406 1.34375v1.72852l0.320312 1.34375l-0.639648 1.28027l0.639648 1.98438c0 1.31152 0.320312 1.66309 0.992188 1.66309l1.63184 0.640625l-1.63184 1.28027l0.671875 1.66309l-0.351562 1.98438l1.63184 -1.34375
l-0.959961 1.66406l1.66406 0.319336l-1.95215 0.640625l0.959961 1.9834l0.671875 1.95215l1.95215 -0.639648l-0.640625 2.30371l1.66406 -0.607422l0.959961 1.31152l-0.639648 1.63184l2.30371 -0.319336l0.959961 0.959961l0.640625 1.34375l0.992188 1.28027
l0.671875 -2.91211l0.959961 2.55957l0.991211 -1.24805l-0.319336 2.27246l1.95215 -0.352539l0.319336 -2.27148l0.671875 1.63184l1.63281 -0.320312l1.66406 -0.959961v-1.9834h-1.95215l1.63184 -0.992188l1.95215 -0.320312l1.34375 0.992188l1.28027 -0.671875
l0.671875 -1.3125l1.63184 -1.31152l0.639648 1.31152l1.98438 -0.319336l3.2002 -1.63281l2.5918 -1.56738l1.66406 -0.992188l1.63184 -0.671875l1.91992 -0.959961l0.992188 -0.992188l0.992188 -0.992188l0.959961 -2.27148l-0.640625 -2.91211l-1.31152 -0.320312
h-2.87988l-2.30371 0.320312l-1.3125 0.992188l-1.28027 0.671875l-1.9834 0.319336l-1.63184 0.959961l0.671875 -1.2793l1.63184 -1.34375l1.66406 -0.640625l1.91992 -1.31152l0.320312 -1.3125l0.671875 -1.9834l1.2793 -1.28027l0.352539 -1.66406l2.24023 -0.959961
l1.66406 -0.992188l1.63184 -0.992188l0.735352 1.66406l-1.66406 1.28027l-2.30371 1.02344v2.59277l0.543945 -1.44043l2.27246 -1.28027l2.23926 -0.991211l0.672852 1.31152l-2.20801 2.24023l-0.352539 1.63184l0.352539 1.63184l1.2793 2.27246l2.30469 -0.640625
l1.63184 -1.66406l-1.02441 1.63281l-0.959961 2.23926l-1.66406 1.3125l-0.639648 1.31152l-0.959961 2.91211l-1.63184 1.28027l-0.928711 1.28027l1.24805 -0.671875l2.59277 -0.640625l1.34375 -0.959961l0.288086 -1.63184v-1.63184l1.24805 -0.959961
l1.31152 -1.28027l1.60059 1.3125l-0.640625 1.2793l0.320312 1.63184l0.639648 1.95215l0.671875 1.24805l1.60059 0.352539l-0.959961 0.991211l1.31152 0.959961l0.992188 -2.30371l1.63184 -0.639648v2.30371l1.95215 0.320312l0.320312 1.31152l1.9834 -0.319336
l0.320312 -1.3125l0.608398 2.30371l-1.56836 1.63281l-1.66406 1.63184l-0.320312 1.31152l1.3125 -0.351562l2.87988 -0.320312l1.59961 -0.959961l1.34473 -0.320312l2.23926 -1.34375l1.60059 -0.320312l1.66406 -1.2793l1.56738 -0.992188l-1.2793 1.98438
l-0.959961 1.2793l-2.59277 1.28027l-2.27148 0.927734l-1.02441 1.02441l-1.24805 1.91992l-0.991211 0.992188l-1.60059 1.2793l-1.66406 1.66406l-0.959961 2.27246l-1.31152 1.59961l-0.992188 1.34473l-1.63184 1.91992l-0.992188 0.991211l1.31152 0.928711
l1.60059 -0.320312l1.9834 -1.95215l1.28027 -1.31152l1.02441 -1.28027l0.959961 -0.992188l0.992188 -0.959961l1.31152 -0.671875l1.95215 -1.59961l0.927734 -1.28027l1.63184 -1.3125l1.60059 -1.63184l0.992188 -0.959961l0.991211 -0.992188l1.95215 -1.8877
l1.28027 -0.639648l0.959961 -1.02441l2.24023 -2.24023l0.351562 -1.31152l1.63184 -2.5918l1.3125 -2.27246l-1.63184 0.320312l-1.95215 -0.640625l1.95215 -0.639648l2.27148 -0.320312l1.28027 -0.671875l-0.320312 1.3125l-0.639648 2.30371l-0.640625 1.24805
l-1.34375 1.63184l-0.639648 1.60059l-1.63184 1.59961l-1.24805 0.639648l-0.959961 1.95215l0.319336 1.3125l1.28027 -1.3125l1.28027 -0.639648l1.59961 -1.34375l0.992188 -0.959961l1.3125 -1.3125l-0.960938 1.3125l-1.66309 1.9834l-1.63281 1.60059
l-1.2793 0.671875s-1.63184 0.992188 -1.63184 0.671875c0 0 -0.928711 0.639648 -1.24805 0.639648l-0.320312 -1.66406l-1.66406 1.66406l-1.59961 1.3125l-1.9209 1.91992l-0.959961 1.31152l-1.91992 1.24805l-2.5918 1.95215l-0.992188 1.24805l-1.31152 1.02441
l-0.992188 1.95117l-0.959961 1.28027l-1.24805 1.24805l0.959961 -0.959961l1.3125 -0.959961l1.63184 -1.98438l1.34375 -0.639648l0.959961 -1.34375l1.3125 -0.640625l1.91992 0.320312l1.9834 -0.639648l-1.31152 0.319336l-1.95215 0.959961l-2.5918 1.34473
l-0.959961 1.59961l1.91992 -0.992188l-1.28027 1.63184l-1.66406 1.60059l2.27246 -0.959961l1.95117 -0.640625l1.56836 -1.02344l2.30371 -0.608398l1.66406 -2.30371l1.56836 -1.28027l1.31152 -1.31152l-0.671875 1.34375l1.28027 -0.992188l1.59961 -1.2793
l2.1123 -1.3125l1.34375 -0.351562l2.20801 -0.320312l-1.31152 0.671875l-1.95215 0.320312l-1.24805 0.959961l-1.66406 1.59961l-1.28027 0.992188l-2.55957 1.91992l-1.63184 1.3125l-1.88867 1.63184l-1.31152 0.319336l-1.3125 0.959961l-1.95117 0.992188
l-1.66406 0.671875l-0.959961 0.959961l-1.95215 1.28027l-1.63184 1.3125l0.671875 2.30371l1.59961 -0.639648l1.3125 -0.672852l-1.3125 0.672852l-1.59961 2.27148l-1.98438 0.671875l-1.9834 1.28027l-1.95215 0.992188l-0.671875 1.2793l-1.60059 1.66406
l-0.992188 1.28027l-1.31152 2.30371l-1.95215 1.60059l2.5918 -1.3125l-0.959961 1.3125l-1.34375 1.31152l1.98438 -0.959961l-1.60059 0.959961l-1.63184 0.992188l-2.30371 1.3125l-1.95215 0.959961l-1.28027 0.671875l-1.95215 1.2793l-1.95215 0.960938
l-0.959961 1.02344l1.60059 -0.671875l1.95215 -0.992188l1.34375 -0.639648l2.33594 -0.320312l1.8877 -1.37598l1.34473 -0.320312l-2.59277 1.3125l-1.66406 1.63184l1.98438 -0.639648l2.27246 -0.992188l2.55957 -0.992188l1.63184 -0.959961l1.95215 -0.639648
l2.55957 -1.66406l1.63281 -0.959961l1.2793 -0.671875l1.98438 -1.63281l1.95215 -0.991211l1.2793 -0.992188l1.95215 -1.28027l1.24805 -1.31152l1.95215 -1.63281l1.3125 -0.671875l2.23926 -1.56738l-0.959961 0.959961l-1.95117 1.31152l-1.60059 1.63184
l-1.66406 1.34473l-1.63184 1.2793l1.91992 -0.319336l-2.27148 1.31152l1.31152 -0.671875l1.95215 -1.28027l-1.02441 0.959961h1.95215l1.95215 0.320312l-1.31152 0.671875l-1.28027 0.671875l-1.98438 0.959961l-1.66406 1.3125l2.23633 -0.65332
c-28.5439 13.2129 -60.3203 20.5889 -93.7881 20.5889c-43.1582 0 -83.5039 -12.2666 -117.732 -33.4971l-1.21191 -1.0625l-1.59961 -0.992188l-1.34375 -1.31152l1.63184 0.991211l-0.608398 -1.59961l-1.34375 -0.992188l-0.959961 -1.59961l-0.992188 -1.66406
l-0.992188 -1.95215l-0.959961 -0.992188l-1.34375 -0.320312l-1.28027 -0.639648l-1.34375 -1.34375v-1.91992l1.66406 0.639648l-0.671875 -1.66406l-0.992188 -0.959961l1.02441 0.959961l-1.34473 -1.28027l-1.63184 -1.66309l-1.31152 -1.60059l-1.3125 -1.63184
l-1.2793 -1.28027l1.2793 1.28027l0.959961 1.28027l1.56836 0.959961l1.31152 1.2793l1.3125 1.34473l1.28027 1.24805l1.31152 1.02344l1.3125 0.320312l2.27148 0.959961l0.959961 1.31152l-1.28027 -0.671875l-1.66309 -0.319336l1.31152 0.991211l1.8877 0.640625
l1.34473 0.639648l-1.66406 -2.30371c-0.640625 -0.320312 -1.63281 -1.24805 -1.28027 -1.24805l-1.34375 -0.992188l0.319336 -1.31152l-1.2793 -1.66406l1.95117 0.351562l1.3125 -0.671875l-0.639648 -1.28027l1.24805 1.95215l1.34375 0.992188l1.28027 0.639648
l-0.640625 -1.63184l-0.959961 -1.31152l-1.63184 -0.992188l-0.959961 -0.992188l-0.671875 -1.95215l-1.63184 -0.992188l-0.959961 -0.927734l1.2793 1.60059l1.3125 0.319336l1.31152 0.671875l0.959961 1.60059l1.34473 1.34375l1.2793 0.639648l1.63184 0.640625
l1.63281 1.34375l1.31152 0.959961l0.959961 0.992188l-1.28027 -0.320312l1.28027 0.992188l1.34375 0.320312l1.24805 1.24805l1.02441 2.49512l1.34375 1.66406l1.24805 0.959961l1.63184 0.992188l1.28027 1.3125l1.95215 1.2793l1.63184 1.02441l-0.992188 -1.02441
l1.63184 1.66406l1.28027 0.640625l1.66406 0.671875l-1.66406 -1.95215l-1.59961 -1.98438l-1.34473 -0.959961l-0.959961 -1.02344l-1.31152 -1.60059l-0.992188 -1.02344l-1.63184 -0.959961l-1.59961 -0.992188l-0.320312 -1.3125l-1.34375 -1.63184l-0.640625 -1.31152
l-1.63184 -1.3125l-1.31152 -1.63184l1.63184 1.3125l1.63184 1.31152l1.63184 1.3125l-0.671875 -1.91992l-1.95215 -1.95215l-1.34375 -0.992188l-0.959961 -0.992188l-1.95215 -3.23145l1.34375 0.639648l0.959961 1.02344l1.28027 0.959961l1.8877 1.3125
l0.959961 0.959961l1.3125 0.639648l1.31152 0.992188l1.3125 1.63184l1.31152 1.3125l1.3125 0.992188l0.319336 -1.3125v-1.63184l-0.639648 -1.66406l-1.63184 -1.63184l-1.28027 -0.671875c-0.671875 0.351562 -1.34375 0 -1.34375 -0.959961l-1.28027 -1.3125
l-1.34375 -2.5918l-1.28027 -0.992188l-1.31152 -0.639648l-1.63184 -0.992188l-1.63281 -1.31152l-0.287109 1.31152l1.31152 1.3125l-1.31152 -0.0322266l-0.640625 -2.30469l-1.34375 0.320312l-1.28027 -0.639648l-0.992188 -0.959961l-1.2793 -0.671875
c-0.640625 -0.671875 -1.28027 -1.3125 -1.60059 -1.3125l-1.31152 0.320312l0.639648 2.62402l-1.28027 0.319336v-1.95117l-0.671875 -1.91992l1.3125 -0.672852l-1.66406 -1.31152l-1.24805 -1.28027l-1.95215 -1.28027l-1.63184 -1.24707l-1.28027 0.607422
l-1.59961 -1.28027l-0.992188 1.63281l0.320312 1.59961l-0.320312 -2.24023l-1.28027 -0.992188l1.28027 0.320312l-0.639648 -1.59961l-0.640625 -1.28027l-1.63184 -0.671875v1.95215l-0.639648 -1.3125l-1.34473 -1.59961l-1.95117 -0.480469l-1.3125 -0.959961
l-1.28027 -0.992188l-1.34375 -1.31152l-1.28027 -1.3125l-1.63184 -1.31152l-0.959961 -0.992188l-1.66406 -1.91992l-1.63184 -1.95215l-1.31152 -1.59961l-0.959961 -1.95215l-1.63281 -2.27246l-1.31152 -0.959961l1.8877 1.24805l0.992188 1.28027l0.288086 -1.31152
l-0.671875 -1.28027l-1.3125 -2.56055l-0.959961 -1.31152l-1.95215 -2.27246l1.28027 0.672852l1.91992 0.671875l0.320312 -1.34473l1.02441 -1.91992l-0.352539 -1.66406v-1.59961l0.992188 -2.30371l-0.320312 -1.63184l1.95215 -0.320312l1.3125 -0.992188
l-0.928711 -1.91992l-1.34375 -1.98438l-1.24805 -2.87988l-1.02441 -1.2793l-0.639648 -1.9209v-1.63184v-2.62402l-0.639648 -1.91992l-0.959961 -0.959961h1.63184l1.63184 1.3125v-2.27246v1.60059l0.959961 1.95117l1.3125 1.95215l0.351562 1.63184l0.639648 1.63281
l0.640625 1.63184l0.639648 1.24805l1.02441 1.9834l0.639648 2.62402l1.3125 0.640625l1.31152 0.639648l1.95215 1.34375l1.56836 0.959961l1.63184 1.95215l0.959961 1.28027l0.671875 1.31152l0.671875 1.24805l0.639648 1.34473l0.640625 1.91992l0.671875 1.2793
l-0.352539 1.60059l0.671875 2.27148l2.24023 1.60059l1.66406 1.2793l1.28027 2.24023l0.671875 1.34375l1.28027 1.95215l0.639648 1.28027l0.959961 0.927734l0.959961 2.30469l1.3125 1.63184l1.31152 1.63184l1.3125 -0.671875l0.671875 -1.28027h1.63184h1.63184
l-0.320312 -1.95215l-0.319336 -2.30371l-0.671875 -1.63184l1.95117 -0.320312l-0.639648 -1.28027l1.3125 0.959961l-0.672852 -1.56738l-1.2793 -0.992188l-1.34375 -1.91992l-1.56836 0.351562l1.28027 -0.671875l-0.320312 -1.59961l-1.3125 -1.66406v-1.53613
v-2.30371l-0.991211 -1.34473l0.959961 0.992188l-0.671875 -1.95215l1.02344 1.3125l1.60059 0.671875l1.34375 1.28027l1.59961 0.671875l1.34375 1.63184l0.959961 1.66406l0.992188 0.959961l1.63184 1.98438l1.34473 0.639648l-0.671875 -1.3125l-0.672852 -1.95117
l-0.319336 -1.66406l-0.320312 -1.63184l-0.671875 -1.3125l-1.02441 -0.959961l-0.319336 -1.34375h1.34375l-1.95215 -1.24805h1.60059v-1.95215l-0.992188 -0.959961l0.992188 -1.66406l-1.63281 -1.63184l-1.31152 -0.671875l-0.352539 -1.60059l1.02441 -1.66406
l0.959961 -1.31152l-1.59961 -1.28027l1.2793 0.288086l1.28027 -0.992188l0.671875 -1.31152l1.28027 0.671875l0.288086 -1.63184l-1.56836 -0.640625l-1.34375 -0.671875l-1.91992 -0.671875h1.91992l-1.59961 -0.320312l-1.60059 -0.639648l-1.31152 -0.351562
l0.351562 -1.3125l1.28027 0.320312l1.31152 0.992188l0.992188 0.959961l1.28027 0.319336l1.59961 -0.927734l-0.959961 -1.66406l1.60059 0.352539l1.02344 -1.63281l-1.02344 -1.66406l-1.28027 -0.639648l0.959961 -0.959961l-0.639648 -1.66406l-1.66406 -0.959961
l-1.60059 -1.34375l-1.34375 0.320312l-1.59961 -0.640625l-1.02441 -0.959961l-1.28027 -1.34375l-1.34375 -0.959961l-1.28027 -0.640625h-1.63184l-1.56836 0.320312h-1.34375h-1.95215l-1.31152 0.639648h-1.66406l-1.28027 0.640625l-1.31152 -1.28027
l-0.959961 -0.959961l-0.959961 -0.992188l-0.671875 -1.2793l-1.63281 -0.320312l-1.34375 -1.3125l-1.59961 -1.31152l-1.95215 -2.56055l-1.63184 -1.31152l-0.671875 -1.3125l-1.24805 -1.2793l-1.3125 -0.640625l1.91992 0.959961l1.60059 1.63281l0.991211 0.959961
l1.28027 1.31152l1.60059 1.56836l1.59961 0.992188l1.91992 0.671875l1.63184 0.639648l1.95215 0.320312l0.959961 -1.28027l-0.320312 -2.27148l-1.66406 -0.640625h-1.59961l-1.66406 -0.671875l1.47168 -1.31152l1.95215 0.319336l-1.91992 -2.5918l0.320312 -1.31152
l-0.320312 -1.3125l1.28027 -1.95215l1.66406 -1.31152l1.28027 -0.320312l1.34375 -0.320312l1.05566 -1.34375l-1.66406 -0.320312l-1.56738 -0.927734l-1.63281 -0.351562l-0.959961 -0.992188l-1.66406 -0.288086l-1.31152 -1.8877l-1.63184 -1.3125l-1.3125 0.640625
l0.671875 2.91113l0.960938 1.34473l1.63184 0.959961l1.91992 0.639648l1.63184 0.352539l-1.63184 0.319336l-1.3125 -0.319336l0.959961 0.959961l-1.95215 -0.959961l-1.2793 -0.352539l-2.30469 0.352539l0.352539 -1.9209l-1.3125 -1.02344h-1.31152
l-1.3125 -0.640625l0.320312 1.3125l-0.927734 -1.28027l-1.66406 -1.56738l-1.28027 -0.992188l-0.992188 -0.927734l-0.319336 -1.3125l-0.640625 -1.95215l-0.607422 -1.59961v-1.60059l0.959961 1.3125l-0.320312 -1.63184l-1.63184 -0.608398l-1.28027 -0.959961
h-1.63184l-2.24023 -0.671875l-1.31152 -1.3125l-0.992188 -2.14355l-0.320312 -1.31152l-1.31152 -2.24023l-1.3125 -0.383789l0.320312 2.27148l-0.671875 -1.95215v-3.2002l-0.959961 -1.59961l-0.959961 -1.95215l-0.671875 -1.91992l0.319336 1.3125l0.352539 2.30371
v2.62402v1.8877l0.639648 1.3125l-0.992188 -1.66406l-0.319336 -2.5918l-1.3125 0.991211l0.640625 -1.66406l0.319336 -1.91992l-0.319336 -1.63184l-0.320312 -1.34375l0.639648 -1.24805l-0.319336 -1.98438l-1.28027 -0.959961l0.607422 -1.59961l0.320312 1.31152
l-0.959961 -2.30371l-1.34375 -0.351562l-1.12012 -1.66406l-1.59961 -1.60059l-0.960938 -1.2793l-1.59961 -1.60059l-0.671875 -1.91992l-1.3125 -1.66406l-1.31152 -0.959961l-0.992188 1.15234l-0.639648 -1.28027l-0.992188 -3.2002l-0.351562 -2.87988v-2.20801
l0.351562 -2.27148l0.320312 -2.59277v-2.23926l0.671875 -2.56055v-1.59961v-2.27246l-0.671875 -1.91992v-1.63184l-1.3125 0.671875l-0.959961 1.95215v1.63184l-0.320312 2.30371l-1.02344 1.95215l0.351562 1.91992v3.84082l-0.671875 1.63184l-0.639648 2.5918
h-1.3125l-1.31152 -0.608398l-0.992188 1.95215c-0.671875 0.671875 -0.992188 0.352539 -1.31152 0.352539l-1.28027 -0.352539l-0.352539 1.63184l-1.31152 -0.959961l-0.927734 -0.991211l-0.671875 -1.3125l0.319336 -2.30371v-1.63184l-0.319336 1.31152
l-1.3125 -0.320312l-1.31152 0.320312l-0.352539 2.62402l-0.639648 -1.31152l-1.95215 0.991211l-1.3125 -0.991211v1.95117l-0.319336 -1.56738l-0.320312 -1.66406l-1.34375 -1.95215l-1.28027 -0.959961l-0.351562 -1.95215l-0.320312 -1.56836l-0.352539 -1.63184
v-3.23145v-1.63184l0.352539 1.31152v-1.63184l-0.671875 -2.87988v-1.60059v-1.95215v-2.87988v-2.5918l0.319336 -2.24023l0.352539 -3.58398l0.320312 -1.31152l0.959961 -1.95215l0.639648 -1.56836l0.992188 -3.26367l1.31152 -1.59961l1.3125 -0.608398
l0.992188 1.24805l1.2793 0.671875l0.352539 -1.31152l0.671875 2.5918l0.320312 2.27148l0.319336 3.48828v1.95215l2.24023 0.959961l1.28027 0.639648l1.31152 0.352539l0.320312 -2.87988l-0.992188 -2.91211l0.352539 -1.91992v-1.95215v-3.2002l-0.672852 2.27246
l-0.671875 -1.60059l0.671875 -2.91211l0.320312 -1.31152v-1.85645l-0.320312 -2.27148l1.3125 -0.320312h1.59961l0.992188 1.28027l1.28027 -1.28027h1.66406l0.959961 -1.02344l1.02344 -0.960938l0.320312 -2.91113l0.320312 -1.3125v-2.5918v-2.52832
l0.319336 -1.63184l0.320312 -2.62402l0.320312 -1.66406l0.992188 -1.28027l0.671875 -1.34375l1.2793 -1.59961l1.34473 -0.671875h1.63184l1.28027 0.959961l1.2793 0.319336l2.27246 -1.63184l1.34375 -1.59961l0.320312 -1.34375l0.319336 2.27148l0.640625 1.91992
v1.95215l0.320312 1.59961l0.671875 1.95215l1.31152 -0.992188v1.95215h1.3125l1.31152 2.30469l1.3125 1.31152l1.2793 -1.63184l-1.31152 -1.98438l0.671875 -1.59961l0.639648 -1.63184l-0.639648 -1.28027l0.639648 -2.24023l0.640625 2.20801l-0.640625 2.94434
l1.95215 1.59961l-0.671875 1.34473l0.992188 1.24707l0.639648 -1.8877l1.3125 -0.992188l1.91992 -0.927734v-1.66406l1.34375 -0.320312l1.91992 0.640625l1.28027 -0.640625l1.59961 -0.927734l1.3125 0.959961l1.31152 0.608398l1.28027 0.671875l1.59961 -0.320312
l-1.2793 -1.31152l0.991211 -0.992188l1.3125 -0.671875l1.28027 -0.639648l1.34375 -1.95215l-0.671875 -1.3125l1.63184 0.320312l1.34375 -0.640625l1.28027 -1.34375l0.959961 -0.927734l1.59961 -1.95215l0.992188 -0.927734l1.3125 -1.28027l1.2793 -0.992188
l0.320312 -1.31152l1.28027 0.992188h1.63184l1.28027 0.319336l1.63184 -0.639648l0.319336 -1.66406l1.28027 0.671875l1.95215 -0.992188l2.27246 -2.5918l0.639648 -1.91992l0.639648 1.63184l0.671875 -1.59961l0.352539 -1.3125l0.639648 -1.2793l0.959961 -1.3125
l1.34473 -2.55957l0.959961 -0.959961l0.319336 -1.34473l-0.639648 -1.59961l-1.3125 -1.63184l-0.671875 -2.5918l1.02441 -1.91992l0.639648 2.23926l1.3125 0.320312l-0.352539 1.63184l2.24023 -0.671875h1.66406l0.639648 -1.63184v-1.60059l-1.66406 -0.351562
l-1.59961 -0.639648l1.28027 -0.640625l0.991211 -1.66406l0.352539 -2.62402l-0.352539 1.63281l0.352539 3.23145l1.28027 1.3125l0.319336 1.63184l1.34473 0.319336l1.63184 -0.639648l1.31152 -0.959961l1.28027 -0.351562l1.34375 -0.672852l1.28027 -0.639648
l0.992188 -1.95215l0.319336 -1.56738l1.28027 1.91992l1.95215 -0.671875l1.85645 -0.320312l1.56738 -0.320312h1.34375h1.69629l1.56836 -1.28027l1.66406 -0.991211l1.24805 -1.24805l1.63184 -1.3125l1.31152 -1.2793l1.3125 -0.992188l1.28027 0.671875
l1.95117 -1.8877l0.640625 -1.34473l0.671875 -1.56738l0.992188 -2.27246l0.319336 -1.31152v-1.63281l-0.639648 -1.95117l-1.63184 -3.52051l-0.927734 -1.63184l-0.320312 -2.87988l-0.352539 -1.60059l-1.31152 0.672852l-0.320312 -1.98438l0.640625 -1.63184
l0.319336 -1.63184l1.3125 -3.52051l0.319336 -1.91992l0.320312 -1.91992l0.639648 -1.28027l-0.639648 -1.31152l1.3125 -3.2002l-0.672852 -1.28027v-1.91992v-1.66406l0.352539 -1.59961l-0.992188 -1.95215h-1.31152l-1.3125 0.320312l-1.28027 -0.640625
l-1.02344 -2.30371l-1.28027 -0.671875l-1.34375 -1.91992l-0.320312 -1.3125l0.320312 -2.62402l1.02344 -1.63184l1.28027 -1.66406l0.320312 -1.59961l0.351562 -3.23242l0.671875 -1.91992v-2.55957l-0.351562 1.31152l-0.320312 1.63184l-1.31152 0.640625
l0.320312 -1.3125l0.639648 -1.31152l0.351562 -1.95215l0.671875 -1.28027l0.959961 -1.95215v-1.91992l0.320312 -1.31152l-1.28027 -0.320312h-1.34375l-1.63184 0.639648l-1.95215 0.640625l-1.63184 1.34375l0.992188 -0.992188l1.59961 -1.63184l2.24023 -0.992188
l1.31152 -1.91992l1.63281 -0.992188l1.31152 -1.63184l0.352539 -1.34375l0.639648 -1.28027l-1.3125 -0.992188h-1.63184l0.320312 -1.31152l1.31152 -1.63184l1.3125 -1.3125l-1.3125 -0.319336h-1.31152l1.31152 -0.992188l1.3125 -1.28027h1.63184l1.3125 -0.959961
c0 -0.671875 0.639648 -1.98438 0.639648 -1.98438l1.34375 -1.31152l1.60059 -1.3125l1.34375 -0.991211l0.639648 -1.69629l1.3125 -0.639648l1.63184 -0.672852l1.31152 -0.351562l1.28027 -0.959961l1.3125 -0.992188l1.31152 -1.63184l1.3125 -0.639648
l1.31152 -1.34473l1.3125 -0.959961l1.25586 -0.612305c17.9219 -4.63379 36.7061 -7.09961 56.0557 -7.09961zM512 190.72c0 -141.439 -114.56 -256 -256 -256s-256 114.561 -256 256c0 141.44 114.56 256 256 256s256 -114.56 256 -256z" />
    <glyph glyph-name="uniF1FA" unicode="&#xf1fa;" 
d="M288 416v-100c27.833 -7.33301 50.792 -22.5 68.875 -45.5s27.125 -49.167 27.125 -78.5c0 -29.667 -9.04199 -55.958 -27.125 -78.875s-41.042 -37.958 -68.875 -45.125v-100h-64v100c-27.833 7.16699 -50.792 22.208 -68.875 45.125s-27.125 49.208 -27.125 78.875
c0 29.333 9.04199 55.5 27.125 78.5s41.042 38.167 68.875 45.5v100h64zM256 112c22 0 40.833 7.79199 56.5 23.375s23.5 34.458 23.5 56.625c0 22 -7.83301 40.75 -23.5 56.25s-34.5 23.25 -56.5 23.25s-40.833 -7.75 -56.5 -23.25s-23.5 -34.25 -23.5 -56.25
c0 -22.167 7.83301 -41.042 23.5 -56.625s34.5 -23.375 56.5 -23.375z" />
    <glyph glyph-name="uniF271" unicode="&#xf271;" 
d="M256 320v96h224v-96h-224zM64 -64v32h256v96h-256v32h256v96h-256v32h256v32h32v-320h-288zM161.6 384h64v-32h-64v-64l-97.5996 80l96.96 80z" />
    <glyph glyph-name="uniF25A" unicode="&#xf25a;" 
d="M489.256 -22.7441l-18.5117 -18.5117c-12.7441 -12.7441 -32.9707 -12.5176 -45.5869 0.0986328l-127.558 127.558c-24.9941 -13.3721 -59.4277 -22.4004 -89.5996 -22.4004c-99.4287 0 -176 76.9141 -176 176c0 99.4287 76.5713 176 176 176
c99.0859 0 176 -76.5713 176 -176c0 -30.5146 -8.71973 -64.6055 -22.4004 -89.5996l127.558 -127.558c12.5049 -12.5049 12.6602 -33.0254 0.0986328 -45.5869zM208 112c70.6924 0 128 57.3076 128 128s-57.3076 128 -128 128s-128 -57.3076 -128 -128
s57.3076 -128 128 -128z" />
    <glyph glyph-name="uniF209" unicode="&#xf209;" 
d="M226.56 384c5.44043 -0.639648 138.561 -136 205.761 -204.832c21.1201 -21.4404 20.7998 -56 -0.320312 -77.1201c-26.2402 -26.208 -61.4404 -60.4795 -88.3203 -86.6875c-21.4395 -20.8008 -56 -20.4805 -77.4395 0.639648
c-67.8398 67.2002 -201.92 200.32 -202.24 205.44v108.512c0 29.7275 24.3203 54.0479 54.0801 54.0479h108.479zM160 256c17.6729 0 32 14.3271 32 32s-14.3271 32 -32 32s-32 -14.3271 -32 -32s14.3271 -32 32 -32z" />
    <glyph glyph-name="uniF1F0" unicode="&#xf1f0;" 
d="M191.917 -32c-35.25 0 -63.917 28.6162 -63.917 63.917v224.083h288v-224.083c0 -35.25 -28.6162 -63.917 -63.917 -63.917h-160.166zM198.4 32h19.1992v160h-19.1992v-160zM262.4 192v-160h19.1992v160h-19.1992zM326.4 192v-160h19.1992v160h-19.1992zM127.858 352
h192.142h32v32c0 17.6729 -14.1992 32 -31.9941 32h-96.0117c-17.6699 0 -31.9941 -14.2041 -31.9941 -32v-32l32 0.639648v31.3604h96v-32h96.1416c17.5947 0 31.8584 -14.2041 31.8584 -32v-32h-352v32c0 17.6729 14.2344 32 31.8584 32z" />
    <glyph glyph-name="uniF1EE" unicode="&#xf1ee;" 
d="M96 160v32h224v-32h-224zM96 96v32h224v-32h-224zM96 32v32h224v-32h-224zM352 256v32h64v-32h-64zM352 192v32h64v-32h-64zM352 128v32h64v-32h-64zM287.936 352v0c53.1846 0 96.2246 -43.0078 96.2246 -96v-224c0 -53.0557 -43.04 -96 -96.2559 -96h-159.744
c-53.1201 0 -96.1602 42.9443 -96.1602 96v224c0 52.9922 43.04 96 96.1602 96h159.775zM352.096 32h-0.03125v224c0 35.3281 -28.7041 64 -64.1602 64h-159.744c-35.3926 0 -64.1602 -28.6719 -64.1602 -64v-224c0 -35.3604 28.7676 -64 64.1602 -64h159.775
c35.4561 0 64.1602 28.6396 64.1602 64zM160.064 320v0h-32.0645v32c0 53.0557 42.7842 96 96 96h159.744c53.1523 0 96.2559 -42.9443 96.2559 -96v-224c0 -52.9922 -42.6885 -96 -95.8398 -96h-32.0645l-0.0957031 32h32c35.3916 0 64 28.6719 64 64v224
c0 35.3604 -28.832 64 -64.2559 64h-159.744c-35.4883 0 -63.9355 -28.6396 -63.9355 -64v-32z" />
    <glyph glyph-name="uniF1FC" unicode="&#xf1fc;" 
d="M160 448h224c26.5 0 49.125 -9.375 67.875 -28.125s28.125 -41.375 28.125 -67.875v-320c0 -26.5 -9.375 -49.125 -28.125 -67.875s-41.375 -28.125 -67.875 -28.125h-224c-26.5 0 -49.125 9.375 -67.875 28.125s-28.125 41.375 -28.125 67.875v320
c0 26.5 9.375 49.125 28.125 67.875s41.375 28.125 67.875 28.125zM448 32v320c0 17.667 -6.29199 32.75 -18.875 45.25s-27.625 18.75 -45.125 18.75h-224c-17.5 0 -32.542 -6.25 -45.125 -18.75s-18.875 -27.583 -18.875 -45.25v-320
c0 -17.667 6.29199 -32.75 18.875 -45.25s27.625 -18.75 45.125 -18.75h224c17.5 0 32.542 6.25 45.125 18.75s18.875 27.583 18.875 45.25zM384 224h-224v32h224v-32zM384 160h-224v32h224v-32zM384 96h-224v32h224v-32zM384 32h-224v32h224v-32z" />
    <glyph glyph-name="uniF20D" unicode="&#xf20d;" 
d="M480 304v-272c0 -26.5 -9.375 -49.125 -28.125 -67.875s-41.375 -28.125 -67.875 -28.125h-224c-26.5 0 -49.125 9.375 -67.875 28.125s-28.125 41.375 -28.125 67.875v320c0 26.5 9.375 49.125 28.125 67.875s41.375 28.125 67.875 28.125h176zM448 288h-128v128h-160
c-17.5 0 -32.667 -6.16699 -45.5 -18.5c-12.333 -12.833 -18.5 -28 -18.5 -45.5v-320c0 -17.5 6.16699 -32.667 18.5 -45.5c12.833 -12.333 28 -18.5 45.5 -18.5h224c17.5 0 32.667 6.16699 45.5 18.5c12.333 12.833 18.5 28 18.5 45.5v256zM352 320h66.5l-66.5 66.5v-66.5z
" />
    </font>
</defs>
</svg>
